<svg width="20" height="20" viewBox="0 0 20 20" fill="none" xmlns="http://www.w3.org/2000/svg">
<path d="M20 10.0009V10.516H19.9863C19.727 15.6281 15.6281 19.727 10.516 19.9863V20H10.0026H9.48914V19.9863C4.37194 19.727 0.273032 15.6281 0.0137374 10.5143H0V9.99914V9.48399H0.0137374C0.273032 4.37194 4.37194 0.271313 9.48571 0.0120201V-0.00171852H10.516V0.0120201C15.6281 0.271313 19.7287 4.37022 19.988 9.48399H20.0017V9.99914L20 10.0009ZM7.45428 18.5988C6.8069 17.8278 6.25397 16.77 5.83841 15.5147H2.93466C4.07143 16.9675 5.64265 18.0613 7.45428 18.5988ZM2.23749 14.4844H5.54134C5.23912 13.279 5.05366 11.9378 5.0176 10.5143H1.04576C1.12819 11.955 1.55233 13.303 2.23749 14.4844ZM2.23749 5.51387C1.55233 6.69357 1.12819 8.04327 1.04748 9.48399H5.01932C5.05538 8.06216 5.24083 6.71933 5.54306 5.51387H2.23749ZM2.93466 4.48356H5.83841C6.25397 3.2283 6.8069 2.17052 7.45428 1.3995C5.64265 1.93698 4.07143 3.03082 2.93466 4.48356ZM9.48571 1.1196C8.5361 1.44758 7.58479 2.65648 6.92367 4.48356H9.48571V1.1196ZM9.48571 5.51387H6.60084C6.29003 6.66953 6.0874 8.00893 6.04963 9.48399H9.48571V5.51387ZM9.48571 10.5143H6.04963C6.0874 11.9894 6.29003 13.3288 6.60084 14.4844H9.48571V10.5143ZM9.48571 15.5147H6.92367C7.58479 17.3418 8.5361 18.5507 9.48571 18.8787V15.5147ZM17.0671 15.5147H14.1633C13.7477 16.77 13.1948 17.8278 12.5474 18.5988C14.3591 18.0613 15.9303 16.9675 17.0671 15.5147ZM10.516 18.8787C11.4656 18.5507 12.4169 17.3418 13.078 15.5147H10.516V18.8787ZM10.516 14.4844H13.4009C13.7117 13.3288 13.9143 11.9894 13.9521 10.5143H10.516V14.4844ZM10.516 9.48399H13.9521C13.9143 8.00893 13.7117 6.66953 13.4009 5.51387H10.516V9.48399ZM10.516 1.1196V4.48356H13.078C12.4169 2.65648 11.4656 1.44758 10.516 1.1196ZM12.5474 1.3995C13.1948 2.17052 13.7477 3.2283 14.1633 4.48356H17.0688C15.932 3.03082 14.3591 1.93698 12.5492 1.3995H12.5474ZM17.7642 5.51387H14.4604C14.7626 6.71933 14.9481 8.06044 14.9841 9.48399H18.956C18.8735 8.04327 18.4494 6.69529 17.7659 5.51387H17.7642ZM14.9841 10.5143C14.9481 11.9361 14.7626 13.279 14.4604 14.4844H17.7642C18.4494 13.303 18.8735 11.955 18.956 10.5143H14.9841Z" fill="#FF8B04"/>
</svg>
