<svg width="56" height="35" viewBox="0 0 56 35" fill="none" xmlns="http://www.w3.org/2000/svg">
<g id="Union">
<mask id="path-1-inside-1_1801_116" fill="white">
<path fill-rule="evenodd" clip-rule="evenodd" d="M14.25 0.000488281L0 17.321L14.25 34.6415V28.321H56V7.321H14.25V0.000488281Z"/>
</mask>
<path d="M0 17.321L-0.772235 16.6857L-1.29494 17.321L-0.772235 17.9563L0 17.321ZM14.25 0.000488281H15.25V-2.78896L13.4778 -0.634848L14.25 0.000488281ZM14.25 34.6415L13.4778 35.2768L15.25 37.431V34.6415H14.25ZM14.25 28.321V27.321H13.25V28.321H14.25ZM56 28.321V29.321H57V28.321H56ZM56 7.321H57V6.321H56V7.321ZM14.25 7.321H13.25V8.321H14.25V7.321ZM0.772235 17.9563L15.0222 0.635825L13.4778 -0.634848L-0.772235 16.6857L0.772235 17.9563ZM15.0222 34.0062L0.772235 16.6857L-0.772235 17.9563L13.4778 35.2768L15.0222 34.0062ZM13.25 28.321V34.6415H15.25V28.321H13.25ZM56 27.321H14.25V29.321H56V27.321ZM55 7.321V28.321H57V7.321H55ZM14.25 8.321H56V6.321H14.25V8.321ZM13.25 0.000488281V7.321H15.25V0.000488281H13.25Z" fill="#FF8B04" mask="url(#path-1-inside-1_1801_116)"/>
</g>
</svg>
