<svg width="56" height="35" viewBox="0 0 56 35" fill="none" xmlns="http://www.w3.org/2000/svg">
<mask id="path-1-inside-1_1_2" fill="white">
<path fill-rule="evenodd" clip-rule="evenodd" d="M41.75 34.6416L56 17.3211L41.75 0.000583026L41.75 6.32109L0 6.32109L0 27.3211L41.75 27.3211V34.6416Z"/>
</mask>
<path d="M56 17.3211L56.7722 17.9564L57.2949 17.3211L56.7722 16.6858L56 17.3211ZM41.75 34.6416H40.75V37.431L42.5222 35.2769L41.75 34.6416ZM41.75 0.000583026L42.5222 -0.634754L40.75 -2.78886V0.000583026H41.75ZM41.75 6.32109V7.32109H42.75V6.32109H41.75ZM0 6.32109V5.32109H-1V6.32109H0ZM0 27.3211H-1V28.3211H0V27.3211ZM41.75 27.3211H42.75V26.3211H41.75V27.3211ZM55.2278 16.6858L40.9778 34.0063L42.5222 35.2769L56.7722 17.9564L55.2278 16.6858ZM40.9778 0.63592L55.2278 17.9564L56.7722 16.6858L42.5222 -0.634754L40.9778 0.63592ZM42.75 6.32109L42.75 0.000583026H40.75L40.75 6.32109H42.75ZM0 7.32109L41.75 7.32109V5.32109L0 5.32109V7.32109ZM1 27.3211L1 6.32109H-1L-1 27.3211H1ZM41.75 26.3211L0 26.3211V28.3211L41.75 28.3211V26.3211ZM42.75 34.6416V27.3211H40.75V34.6416H42.75Z" fill="#FF8B04" mask="url(#path-1-inside-1_1_2)"/>
</svg>
