<svg width="72" height="10" viewBox="0 0 72 10" fill="none" xmlns="http://www.w3.org/2000/svg">
<path d="M9.78668 7.93322C9.78668 9.28745 9.26636 10.0019 7.42412 10.0019H0C0.296009 9.4031 0.224305 9.05988 0.266592 8.29136V1.72542C0.266592 0.570789 0.2813 0.669651 0 0H7.42412C9.18179 0 9.7591 0.712554 9.78668 2.06864V3.21022C9.78668 4.36672 9.20937 4.7659 7.81757 4.79388C9.26452 5.03637 9.75726 5.18 9.78668 6.27681V7.93322ZM6.60964 3.43966V2.2272C6.60964 1.82802 6.60964 1.65641 6.04888 1.65641H3.73964V4.01045H6.04888C6.49748 4.01045 6.60964 3.81086 6.60964 3.43966ZM6.60964 7.78959V6.22085C6.60964 5.84965 6.60964 5.69297 6.04888 5.66499H3.73964V8.34732H6.04888C6.46991 8.34732 6.55448 8.30442 6.60964 7.79146" fill="#AA182C"/>
<path d="M21.1306 10H17.2623L15.6039 5.66312H14.5504V8.28763C14.5504 8.90132 14.4382 9.10091 14.8335 10H10.8126C11.1086 9.39937 11.0369 9.05801 11.0792 8.28763V1.72542C11.0792 1.04085 11.1343 0.555866 10.728 0H18.1816C19.783 0 20.5147 0.527887 20.5423 2.21041V4.05148C20.5423 5.29192 20.136 5.60716 19.1523 5.66499L20.3897 8.47603C20.6563 9.0748 20.9376 9.74445 21.1343 10.0019M17.3524 3.43966V2.2272C17.3524 1.82802 17.3671 1.68625 16.8045 1.65641H14.5522V4.00858H16.8045C17.2549 4.00858 17.323 3.95262 17.3524 3.43966Z" fill="#AA182C"/>
<path d="M26.1758 10H22.1255C22.4068 9.42921 22.3645 8.65883 22.4068 8.28763V1.72542C22.4068 0.498041 22.4491 0.770379 22.1255 0H26.1758C25.9368 0.512964 25.8467 0.680843 25.8798 1.65827V8.33986C25.8798 8.33986 25.8449 9.36952 26.1758 10Z" fill="#AA182C"/>
<path d="M35.7327 8.07499L35.4238 10H27.4224C27.7184 9.40123 27.6485 9.05801 27.6908 8.28763V1.72542C27.6908 0.570789 27.7037 0.669651 27.4224 0H35.2841L35.5654 1.92501C35.5654 1.92501 34.3703 1.65454 33.9897 1.65454H31.1638V4.00858H33.6238C33.975 4.00858 34.2287 4.12237 35.1995 3.73811V5.92054C35.1995 5.92054 33.9768 5.67805 33.6238 5.66499H31.1638V8.34732H34.1736C34.7785 8.34732 34.749 8.47603 35.7327 8.07685" fill="#AA182C"/>
<path d="M44.5317 1.92501C44.1383 1.81123 43.618 1.68252 42.9708 1.65454H40.1449V4.00858H42.6049C42.9561 4.00858 43.2098 4.12237 44.1787 3.73811V5.92054C44.1787 5.92054 42.9561 5.67991 42.6049 5.66499H40.1449V8.2895C40.1449 8.90319 40.0328 9.10278 40.4244 10.0019H36.4053C36.6994 9.4031 36.6296 9.05988 36.67 8.2895V1.72542C36.67 0.570789 36.6866 0.669651 36.4053 0H44.2651L44.5317 1.92501Z" fill="#AA182C"/>
<path d="M49.3951 10H45.3447C45.626 9.42921 45.5837 8.65883 45.626 8.28763V1.72542C45.626 0.498041 45.6683 0.770379 45.3447 0H49.3951C49.1542 0.512964 49.1009 1.29827 49.1009 1.72542V8.28763C49.1009 8.90132 48.9998 9.10091 49.3951 10Z" fill="#AA182C"/>
<path d="M61.0182 0C60.8785 0.214512 60.6965 0.328297 60.6965 1.79817V10.0019H56.1957L52.4413 1.72729L52.4119 8.20369C52.4119 8.80433 52.5388 9.64559 52.7649 10.0019H50.5825C50.8509 9.58776 50.8785 9.46092 50.9079 8.20369V1.59858C50.9079 0.542809 50.8657 0.442082 50.5825 0H55.4363L59.1502 8.16079V1.59858C59.1502 0.669651 59.1502 0.457004 58.8395 0H61.0164H61.0182Z" fill="#AA182C"/>
<path d="M71.5626 8.03022V5.5624C71.5921 4.76404 71.6215 4.63346 71.9984 4.00672H66.2326V5.84779C66.2326 5.84779 66.6555 5.66126 66.7952 5.66126H68.0896V7.70006C68.0749 8.144 67.8634 8.34359 67.413 8.34359H66.2602C65.7987 8.32867 65.5726 8.12721 65.5726 7.70006V2.29808C65.5726 1.86905 65.7987 1.65454 66.2602 1.65454H68.4665H69.9539C70.6011 1.68252 71.1214 1.81123 71.5148 1.92501L71.2501 0H64.4069C62.8589 0.0279799 62.1143 0.884163 62.1143 2.93788V7.06025C62.1418 9.2147 62.9306 10 64.4069 10H67.47C68.4279 9.97202 68.54 9.74259 68.7643 9.07107L68.8783 10H71.9432C71.5332 9.37325 71.5626 9.28745 71.5626 8.03022Z" fill="#AA182C"/>
</svg>
