<svg width="147" height="130" fill="none" xmlns="http://www.w3.org/2000/svg"><g clip-path="url(#clip0_259_4)"><path d="M105.611 53.53s-.064.036-.071.071a112.77 112.77 0 00-.418 1.647c-.078.305-.17.603-.29.887a7.56 7.56 0 01-.411.802 4.565 4.565 0 01-.446.653 3.624 3.624 0 01-1.161.88c-.24.107-.474.227-.694.37a.921.921 0 00-.311.283.424.424 0 00-.028.412c0 .007 0 .021.014.028 0 0 0 .007.007.014 0 .008.014 0 .021.015.177.227.503.156.743.07.064-.02.1-.099.078-.163a.137.137 0 00-.12-.085c-.057 0-.12 0-.184-.014.028-.021.057-.05.085-.071a5.15 5.15 0 01.616-.34c.262-.121.51-.27.743-.44.234-.164.453-.356.637-.569.192-.227.354-.475.51-.73a8.28 8.28 0 00.453-.867 6.56 6.56 0 00.333-.979c.156-.59.149-1.207.007-1.796a.101.101 0 00-.113-.07v-.008zm-.007 2.967a59.07 59.07 0 01-.418.98 21.55 21.55 0 01-.496 1.086 3.71 3.71 0 01-.318.56c-.071.1-.156.199-.248.277a.966.966 0 01-.347.163 7.31 7.31 0 01-.779.185c-.389.07-.771.177-1.154.298-.212.07-.41.156-.601.263-.142.085-.298.184-.39.319a.2.2 0 00-.028.156c.056.241.304.398.517.476.29.099.601.07.885-.029h.007c.014 0 .021-.007.035-.014.34-.135.673-.263 1.02-.376.297-.107.594-.22.87-.37a2.24 2.24 0 00.539-.382h.014l.035-.036c.12-.128.227-.27.319-.419 0-.007.014-.014.014-.021.134-.213.241-.44.354-.667.177-.376.326-.774.46-1.171.12-.355.255-.753.248-1.136v-.007c0-.036 0-.071.007-.107 0-.02.035 0 .057 0 .07.029.148 0 .177-.07.021-.05.014-.107-.022-.142-.099-.114-.233-.206-.389-.178-.191.029-.305.206-.368.376v-.014zm-56.859 1.434a.488.488 0 00-.156-.163 3.652 3.652 0 00-.262-.2 4.925 4.925 0 01-.46-.404 3.495 3.495 0 01-.39-.468 2.891 2.891 0 01-.282-.575c-.156-.39-.262-.795-.369-1.2-.113-.418-.22-.83-.354-1.242v-.007a10.853 10.853 0 01-.255-.901 4.51 4.51 0 01-.12-1.065c0-.305.014-.617.078-.915a3.82 3.82 0 01.22-.682c.127-.284.29-.553.46-.816.092-.142.212-.291.368-.362.12-.057.255-.028.375.028.07.036.149 0 .184-.064a.132.132 0 00-.035-.163.729.729 0 00-.651-.184c-.27.064-.475.262-.63.482a6.07 6.07 0 00-.539.866c-.12.249-.22.511-.276.781a4.127 4.127 0 00-.085 1.022c0 .405.043.81.135 1.2.07.319.155.631.248.944.12.404.212.816.304 1.227.1.433.191.873.354 1.292.092.241.205.483.347.696.134.199.297.383.467.56.17.17.347.334.552.462h.007c.135.085.29.149.447.149.141 0 .354-.092.325-.27 0-.014 0-.021-.007-.035v.007zm1.303-.107a8 8 0 00-.857-.624c-.042-.022-.092-.015-.12.028a.135.135 0 00-.014.057c.056.397.318.738.623.98a4.99 4.99 0 00.672.454c.177.099.397.198.602.184h.05c.141-.021.276-.078.403-.142.198-.1.39-.213.58-.333a.125.125 0 00.036-.17.12.12 0 00-.149-.05 6.647 6.647 0 01-.594.212c-.092.022-.191.057-.29.05-.135-.021-.27-.128-.383-.198a7.515 7.515 0 01-.587-.448h.028zm-3.95-.802c0-.042-.03-.07-.072-.078a1.937 1.937 0 00-.354-.021c-.05 0-.099.014-.127.05-.05.05-.028.12.014.17v.014c.12.114.234.227.354.34.191.185.382.377.574.569.212.22.403.461.58.71.198.283.383.581.545.887.333.61.68 1.213 1.041 1.81.014.028.05.035.07.02a.057.057 0 00.022-.063c-.234-.66-.488-1.313-.821-1.93a9.466 9.466 0 00-.567-.923 6.206 6.206 0 00-.615-.753 4.052 4.052 0 00-.624-.532s-.014-.007-.014-.014c-.078-.057-.155-.107-.233-.163h.148a.079.079 0 00.078-.079v-.014zm34.599-12.917a.093.093 0 00.113-.057c.014-.043 0-.085-.043-.107-.106-.064-.24-.099-.346-.02-.114.084-.142.24-.15.375-.006.156.008.32.03.476.028.248.063.497.105.745.078.476.156.951.248 1.427.078.425.17.851.27 1.27.134.56.304 1.107.495 1.654.163.461.326.915.502 1.37.128.326.277.646.44.958.17.326.325.66.467 1 .19.455.559.959 1.097.966.043 0 .07-.028.07-.071a.065.065 0 00-.027-.057c-.333-.248-.531-.646-.687-1.022a12.587 12.587 0 00-.489-1.036 8.777 8.777 0 01-.417-.909c-.177-.447-.347-.901-.517-1.348a18.239 18.239 0 01-.524-1.597c-.106-.412-.213-.83-.305-1.242-.106-.469-.19-.937-.276-1.406-.07-.39-.148-.773-.19-1.17 0-.05-.022-.15.013-.2.022-.02.085 0 .107 0h.014zm-5.622 12.733c-.127-.199-.318-.362-.566-.37-.184 0-.368.036-.545.107h-.007c-.234.092-.453.234-.666.37-.212.134-.425.29-.58.489a.751.751 0 00-.156.504v.028c.014.128.07.249.198.291.12.036.255 0 .368-.042.043-.015.064-.064.05-.107-.014-.035-.057-.064-.1-.05-.063.015-.162.043-.226 0-.028-.014-.021-.063-.014-.085a.7.7 0 01.156-.326c.134-.163.332-.291.51-.405.19-.12.389-.241.601-.32.128-.042.27-.07.404-.063.106 0 .184.1.24.185.135.213.184.475.22.716.042.277.12.625.354.81.028.02.064.014.078-.008 0-.007.007-.014.014-.028.043-.27 0-.56-.035-.83-.043-.298-.114-.61-.276-.873l-.022.007zm4.142 2.008h-.014c-.036 0-.057.029-.064.064a1.401 1.401 0 01-.028.17c0 .015 0 .029.007.043v.036a.085.085 0 00.035.035c.014.007.021.014.036.014.007 0 .014 0 .02-.007.022 0 .043 0 .065-.021a.375.375 0 00.085-.1c.127-.205.247-.418.375-.624.184-.312.375-.617.573-.923.064-.1.135-.206.22-.298a.72.72 0 01.127-.127.416.416 0 01.262-.05c.07 0 .142.035.206.07.127.065.247.143.368.22.19.129.403.263.552.448.17.213.333.433.502.646.022.021.05.028.078.007a.064.064 0 00.022-.05c-.043-.29-.12-.582-.284-.83-.155-.234-.41-.405-.63-.554-.22-.149-.495-.333-.771-.348h-.008a.945.945 0 00-.48.114c-.206.12-.348.355-.475.554a8.195 8.195 0 00-.524.986c-.085.178-.163.355-.248.532l-.007-.007zm4.602-.404c-.057.085-.113.17-.177.248a.11.11 0 01-.057.043.098.098 0 00-.07.092c0 .177.148.305.318.327.234.02.439-.15.56-.334.17-.263.283-.56.367-.859.085-.277.15-.575.15-.866v-.021c0-.213-.03-.433-.072-.639v-.021c-.05-.277-.184-.54-.332-.78 0 0 0-.008-.007-.015.02-.043.02-.092-.015-.128-.084-.092-.177-.191-.254-.29a.055.055 0 00-.029-.03c-.014-.013-.035-.02-.056-.028h-.064c-.128.015-.177.142-.135.249.057.149.12.29.177.44.085.213.163.44.191.667.022.192.036.39.029.582 0 .234-.092.468-.177.688a3.51 3.51 0 01-.34.696l-.007-.021zm2.79-.59c-.199-.475-.383-.957-.567-1.433-.198-.518-.41-1.058-.73-1.519a.113.113 0 00-.155-.028.112.112 0 00-.042.135c.205.51.403 1.022.601 1.54.184.482.369.965.574 1.448.41.993.835 1.973 1.26 2.967.014.028.043.042.07.028.03-.014.036-.036.03-.064a184.89 184.89 0 00-.645-1.987c-.12-.362-.24-.724-.382-1.072l-.015-.014zm-18.847 9.724s.02.022.035.029h.035c.085.021.17 0 .248-.036.114-.064.22-.149.319-.234a.054.054 0 00.014-.035c.106-.007.212-.015.319-.015.36 0 .75 0 1.104-.12.234-.078.481-.12.73-.135.29-.021.573-.092.835-.227.325-.17.623-.376.927-.582.163-.114.333-.227.496-.334.113-.07.233-.135.34-.213.162-.092.34-.17.524-.22.24-.064.467-.184.672-.32.248-.17.531-.29.814-.39.262-.092.531-.184.807-.212a.678.678 0 01.475.134c.283.213.623.348.977.355.028 0 .056-.021.056-.05 0-.02-.007-.035-.028-.05a8.632 8.632 0 01-.793-.539 1.01 1.01 0 00-.722-.205 3.785 3.785 0 00-.885.234 4.478 4.478 0 00-.892.426c-.177.113-.361.22-.566.277a2.407 2.407 0 00-.61.255c-.297.17-.58.37-.863.568-.17.114-.333.227-.51.34l-.212.128c-.057.029-.113.057-.163.093a1.81 1.81 0 01-.7.191 3.125 3.125 0 00-.808.156c-.311.107-.665.107-.991.107-.198 0-.397 0-.595.042-.134.022-.283.064-.368.17-.092.114-.135.306-.014.412v.008l-.007-.008zm10.266-2.76a.204.204 0 00.226.113c.092-.021.17-.092.24-.149.03-.021.036-.057.03-.092.006 0 .013-.014.02-.014.142-.072.29-.135.44-.192.247-.1.523-.213.8-.227.091 0 .176.021.233.092a2.3 2.3 0 00.51.469c.184.12.347.27.502.432.177.192.376.37.595.511h.007c.227.142.475.242.722.327.255.085.496.206.723.348.24.149.488.29.743.397.007 0 .014.007.021.014.297.121.602.2.913.277.227.05.447.107.666.17.12.036.24.072.347.128.042.022.099 0 .12-.035 0-.007.007-.014.007-.029.036-.198-.12-.383-.262-.496-.22-.164-.488-.256-.75-.313a3.141 3.141 0 01-.793-.255 8.09 8.09 0 01-.68-.398 3.546 3.546 0 00-.864-.404h-.007a1.797 1.797 0 01-.559-.249 3.091 3.091 0 01-.481-.433 3.597 3.597 0 00-.602-.539c-.149-.107-.297-.213-.432-.34a.944.944 0 00-.715-.235h-.014c-.326.035-.651.163-.949.284-.177.07-.354.149-.51.27a.675.675 0 00-.24.32c-.007.013-.022.027-.022.042v.014a.32.32 0 00.014.199v-.007zm-5.714 3.15c.12-.049.24-.099.368-.134.085-.028.177-.043.27-.071.282-.05.58-.043.863-.043.347 0 .687 0 1.034-.014.078 0 .17 0 .248.022.028.007.063.02.077.05.128.177.347.255.56.269h.007c.205.014.403.085.58.17.27.128.56.199.857.199.29 0 .588-.007.878-.035a2.5 2.5 0 00.75-.185s.014 0 .022-.007c.226-.114.431-.256.637-.398a4.87 4.87 0 00.658-.553.056.056 0 000-.078c-.014-.014-.028-.014-.042-.014a1.844 1.844 0 00-.829.333 2.8 2.8 0 01-.58.334 2.537 2.537 0 01-.651.134 8.093 8.093 0 01-.829.043c-.24 0-.474-.043-.694-.142a2.284 2.284 0 00-.715-.199c-.092-.007-.212-.028-.276-.113-.156-.206-.425-.227-.658-.206h-.014c-.333.035-.673.035-1.006.035-.304 0-.623 0-.927.05a3.542 3.542 0 00-.701.227c-.227.093-.51.27-.503.547v.028c.007.12.057.277.205.284.114 0 .192-.092.248-.177a.1.1 0 00-.021-.135c-.035-.029-.085-.022-.113 0 .007-.029.035-.057.056-.078a.839.839 0 01.27-.15l-.029.008zm-.042 2.03l.02.03a.17.17 0 00.093.049l.262.042c.269.043.53.128.793.206.375.114.757.213 1.14.305.36.086.722.192 1.069.32.304.113.623.213.948.234.184.014.369.05.538.114.255.099.531.127.8.134.369.015.73-.028 1.09-.099.32-.064.645-.128.957-.227.325-.1.644-.22.963-.348.417-.163.82-.369 1.196-.61.269-.17.538-.34.828-.462.262-.106.517-.22.765-.34a.082.082 0 00.035-.1c0-.014-.014-.02-.028-.028-.283-.192-.673-.135-.977-.014a7.052 7.052 0 00-.913.49 8.23 8.23 0 01-1.119.56c-.304.12-.609.242-.92.334a8.246 8.246 0 01-.9.213 4.46 4.46 0 01-.97.1c-.212 0-.438-.022-.637-.093a2.458 2.458 0 00-.68-.135c-.282-.014-.559-.1-.828-.192a15.68 15.68 0 00-1.118-.326 29.16 29.16 0 01-1.119-.298c-.29-.078-.609-.17-.906-.142-.085.007-.177.014-.262.028-.028 0-.057.022-.078.036-.007 0-.021 0-.028.014a.131.131 0 00-.036.12v.015c0 .021 0 .035.014.056l.008.015zm20.503-27.481h.028c.114.014.234.028.354.028v.007c0 .014.007.022.022.036l.17.149c.198.177.36.397.523.603.347.44.808.83 1.36.965.028 0 .056-.007.063-.035 0-.021 0-.043-.02-.057-.44-.29-.8-.681-1.127-1.093a6.504 6.504 0 00-.346-.404 2.03 2.03 0 00-.184-.164c.092 0 .177.014.254.05a.592.592 0 01.213.206c.092.128.226.248.396.262.114.015.298-.063.27-.206 0-.014-.008-.02-.015-.035-.092-.1-.163-.22-.248-.326a1.143 1.143 0 00-.403-.355c-.198-.093-.425-.1-.637-.1a2.01 2.01 0 01-.538-.056c-.22-.057-.425-.17-.623-.277a14.68 14.68 0 01-.864-.476c-.227-.135-.475-.27-.73-.326-.17-.043-.332-.1-.495-.157-.29-.113-.602-.177-.913-.24a5.717 5.717 0 00-1.154-.1h-.015a5.54 5.54 0 00-.97.092h-.014c-.05-.021-.099-.042-.156-.05-.148-.014-.269.064-.353.17l-.432.129a8.69 8.69 0 00-1.006.404h-.007a2.705 2.705 0 00-.85.646v.007c-.247.277-.48.568-.707.866-.1.135-.199.27-.283.419a.73.73 0 00-.12.32v.006c0 .15.091.27.24.291.12.022.248-.021.36-.064a.11.11 0 00.065-.149c-.022-.05-.064-.078-.114-.07-.063 0-.127 0-.19-.015.006-.042.049-.1.07-.135.078-.135.17-.255.262-.376.085-.113.191-.22.283-.334-.014.185-.021.37-.028.554 0 .192 0 .398.05.596h-.68c-.128 0-.34-.02-.383.142v.1s.014.021.029.035v.007c.02.029.056.05.092.057h.014c.057 0 .12.021.177.035.035.008.064-.007.092-.035h.786c.12.199.311.334.552.334a.05.05 0 00.05-.05.06.06 0 00-.029-.05.514.514 0 01-.24-.234h.155c.298 0 .602.014.9.043.198.02.396.042.587.099.255.071.51.149.765.234.255.085.53.135.8.163.382.05.772.064 1.16.064h.256c.007.014.014.029.028.036.12.092.305.1.446.1.043 0 .078-.03.078-.072 0-.014 0-.021-.007-.035a.287.287 0 00-.035-.064 3.01 3.01 0 00.353-.036c.213-.035.432-.05.652-.056.106.092.226.184.354.248.028.014.064 0 .078-.028v-.008a.432.432 0 000-.212h.212c.142 0 .283 0 .432-.007.163.319.39.61.63.873a.053.053 0 00.085 0 .102.102 0 00.021-.064 3.234 3.234 0 00-.382-.845c.149-.014.304-.028.446-.064.234-.057.524-.142.673-.355.014-.014 0-.028-.007-.05.042.15.077.299.12.448.035.135.177.22.311.177a.25.25 0 00.177-.312.269.269 0 00-.127-.163c-.135-.071-.276-.142-.41-.213-.029-.014-.057 0-.072.021v.007c-.014-.014-.035-.014-.056-.007-.205.078-.44.1-.659.113-.177.015-.36.022-.538.029-.007 0-.007-.014-.02-.014-.05-.007-.1 0-.142.014.205-.284.41-.575.559-.894.099-.213.198-.476.142-.717a.232.232 0 010-.12.742.742 0 00.134.035h.014l-.014.085zM90 41.308c.184.071.375.128.566.178.064.014.127.05.198.07l-.063.341a.219.219 0 00-.022-.092v-.014c-.007-.029-.028-.043-.035-.071a.476.476 0 00-.05-.078c-.02-.029-.05-.043-.078-.064-.014-.014-.028-.029-.05-.043-.006 0-.013 0-.027-.007-.022-.007-.036-.014-.057-.021a.32.32 0 00-.113-.021h-.064c-.043 0-.085.014-.12.02a.13.13 0 00-.05.015.536.536 0 00-.07.043c-.093-.05-.185-.107-.277-.157a5.31 5.31 0 00-.205-.106s-.007-.014-.014-.014a1.172 1.172 0 00-.29-.199c.275.05.552.107.814.206l.007.014zm.63.923a1.31 1.31 0 01-.12.32 1.59 1.59 0 01-.298.375c-.021.022-.042.029-.064.05.022-.078.043-.149.043-.227a.056.056 0 01.028-.028l.014-.015c.021-.028.036-.056.057-.078a1.07 1.07 0 00.212-.198.435.435 0 00.085-.114c.014-.028.029-.05.043-.078v-.007zm-2.436 1.2v.056a.57.57 0 00.12.241c.015.015.036.022.05.036-.064.021-.127.035-.184.057-.042-.114-.085-.22-.113-.334-.014-.057-.028-.12-.043-.177.057.042.12.078.177.113l-.007.007zm-1.99-2.144c.043-.014.086-.036.135-.05h.007a.337.337 0 00-.085.199c0 .035-.02.064-.014.1v.028c0 .007 0 .014.007.021a.715.715 0 00.142.284v.277c-.035-.05-.07-.093-.1-.15a1.035 1.035 0 01-.091-.46v-.249zm6.061 1.327c-.014.192-.078.376-.134.554-.106.333-.227.667-.347.993v.043h-.864c-.014-.007-.028-.021-.05-.028a.096.096 0 00-.063-.064c-.036-.015-.071-.022-.106-.036l-.022-.007c-.028-.014-.056-.007-.085 0h-.014s-.028 0-.042.014c-.014.007-.007.022-.022.036-.007.007-.02.014-.028.028v.029c0 .02-.007.035 0 .05v.02c-.12.008-.248.015-.368.029a7.64 7.64 0 01-1.062.07c-.375 0-.75 0-1.119-.049a3.186 3.186 0 01-.722-.149c-.255-.085-.517-.17-.778-.248a2.967 2.967 0 00-.666-.114c-.312-.028-.623-.035-.935-.028h-.283a2.646 2.646 0 01-.035-.575c.014-.348.014-.717.113-1.058 0 0 0-.014.007-.02a3 3 0 01.17-.143.1.1 0 01.085.043c.028.042.014.106 0 .156s.014.106.064.113a.09.09 0 00.106-.042c.057-.107.1-.227.057-.34-.014-.043-.05-.072-.071-.1.099-.064.205-.128.318-.17.163-.072.333-.121.496-.178v.12c0 .214.035.434.135.632.07.135.17.249.269.355.05.057.106.107.155.156v.036a.955.955 0 00.283.49c.142.149.326.255.517.326.036.014.078.014.114.021.028.022.05.05.078.071.028.05.049.114.091.164a1.2 1.2 0 00.185.198.398.398 0 00-.085.029c-.036.007-.057.05-.05.085 0 .021.021.035.035.043a1.72 1.72 0 001.162.05c.354-.107.7-.242 1.026-.42.255-.134.51-.298.715-.51l.007-.008c.135-.149.255-.312.333-.49v-.014c.1-.227.135-.482.149-.724.007-.099.014-.205.028-.305.035.022.07.036.106.057.29.17.588.327.892.476.1.05.206.099.312.142a.495.495 0 00-.085.24l.028-.049zm-31.895 1.54h.014c.093 0 .177-.07.241-.128.07-.063.135-.141.198-.212.17-.213.326-.426.482-.646.184-.256.396-.49.623-.703.106-.1.205-.199.318-.284.05-.035.107-.085.163-.106.248-.1.489-.213.73-.327.261-.128.53-.241.807-.333a4.22 4.22 0 01.283-.078v.05c0 .319-.014.645.042.957.029.185.114.355.227.504.12.164.283.298.453.405.106.064.227.12.347.17a.71.71 0 00.333.15c.056 0 .12 0 .184-.015.106.021.212.043.325.057a.979.979 0 00.354.064c-.014.021-.02.042 0 .064.007.014.029.02.043.02.163 0 .319-.07.46-.141a3.51 3.51 0 00.538-.383.41.41 0 01.064-.057.529.529 0 00.148-.092c.064-.057.107-.135.15-.206.063-.071.127-.135.176-.213.114-.163.213-.334.276-.518v-.021a1.52 1.52 0 00.319-.476v-.021c0-.008.014-.015.014-.022 0-.007 0-.014-.014-.02a.236.236 0 00-.078-.164c.035-.057.057-.135.035-.206a.252.252 0 00-.17-.178c.22.029.447.057.666.114.078.021.184.036.24.092.057.05.086.15.107.22.057.178.127.355.248.504a.64.64 0 01.064.071c0 .007-.015.014-.015.029v.078c0 .014.022.014.029.028.007.007.014.022.028.029a.34.34 0 00.127.042h.029c.035.029.07.057.113.085 0 .014-.014.022-.014.036-.05.092-.12.177-.184.262-.347.426-.701.838-1.062 1.25-.022.02-.014.056 0 .078.021.014.042.021.063 0 .468-.306.92-.66 1.268-1.1.07-.093.134-.192.19-.291.22.177.433.369.624.574.177.192.354.377.517.582 0 0 0 .008.007.015-.255 0-.517.014-.765.056a9.79 9.79 0 00-1.465.412c-.036.014-.057.05-.043.085.014.036.05.057.085.043a9.26 9.26 0 011.459-.34c.283-.036.573-.058.863-.072.022.043.043.078.057.12.05.157.177.256.34.242h.021a.795.795 0 00.467-.263c.029-.028.022-.07 0-.099a.074.074 0 00-.092 0 .516.516 0 01-.382.142c-.043 0-.05-.028-.057-.07 0-.03-.014-.058-.02-.086l.75-.021c.02 0 .042-.022.042-.043 0-.021-.014-.042-.042-.042-.262-.029-.524-.036-.793-.05a1.659 1.659 0 00-.114-.256 4.498 4.498 0 00-.474-.681 8.178 8.178 0 00-.7-.78c-.15-.15-.312-.292-.44-.455-.07-.085-.106-.199-.141-.305a2.354 2.354 0 00-.192-.462c-.12-.212-.347-.333-.573-.404a4.199 4.199 0 00-.843-.156 9.013 9.013 0 00-.977-.057c-.24 0-.488 0-.729.028a4.668 4.668 0 01-.772 0 4.862 4.862 0 00-1.281.142h-.021c-.333.085-.659.17-.991.27a5.616 5.616 0 00-.914.376c-.226.114-.46.227-.686.34-.27.129-.489.356-.701.554a4.282 4.282 0 00-.687.83c0 .008-.014.015-.014.022-.135.22-.27.44-.41.653a.678.678 0 00-.128.433c.007.128.078.305.226.32l.007-.015zm7.42-3.18s-.028.029-.05.043c0 0 0 .014-.014.014h-.007c-.014-.014-.021-.035-.042-.05-.022-.014-.043-.02-.064-.035.057 0 .113.007.17.014l.007.015zm-.609 1.96l.085-.043v.021c0 .022.007.036.014.057l-.148.128c0-.014-.015-.029-.022-.05.022-.035.05-.07.071-.113zm-.311.376s.028-.015.05-.029c-.086.078-.178.156-.263.235-.021-.008-.05-.022-.07-.029-.022-.05-.05-.092-.071-.142a.667.667 0 00.162-.07c.05.006.107.013.156.013.014 0 .028.015.043.015l-.007.007zm-.397-1.171s.035-.057.043-.093c.035-.092.07-.184.092-.284 0 0 .014-.007.014-.014.042-.042.078-.1.113-.156h.07v.014a6.071 6.071 0 00-.077.944 2.106 2.106 0 00-.22-.156c-.042-.028-.077-.057-.12-.085.036-.057.064-.114.092-.177l-.007.007zm-1.855.142v-.008c.029.086.057.17.092.256a.772.772 0 01-.092-.241v-.007zm.779-1.186a.054.054 0 01-.014.029c-.05 0-.1-.015-.142-.015.057-.007.114-.02.163-.028l-.007.014zm-.517.085c.036 0 .071-.014.106-.014-.056.014-.106.05-.155.078 0-.014 0-.035-.008-.05.022 0 .036-.007.057-.014zm-.198.043s.014.043.014.064c0 .014.014.028.028.035a.59.59 0 00-.134.192v-.27c.028 0 .064-.014.092-.021zm-1.21 1.256a1.884 1.884 0 00-.39-.163c-.014-.021-.028-.035-.05-.035l-.424-.086h-.029c-.05 0-.092.022-.113.064 0 .014-.014.029-.014.043 0 .05.028.092.078.113.099.043.198.093.297.135.163.078.319.156.474.242.283.163.574.319.857.475.028.014.057 0 .07-.021.008-.022.008-.043 0-.057-.212-.263-.452-.532-.75-.703l-.007-.007zm.983 1.193s-.028-.036-.05-.036a7.61 7.61 0 00-1.55.17c-.29.064-.587.128-.878.213-.141.043-.311.086-.431.17h-.015s-.014.008-.014.015c-.028.028-.056.05-.085.078a.184.184 0 00-.05.213c0 .014.015.028.029.036.028.035.07.05.12.05a.054.054 0 00.036-.015c.021 0 .05-.007.063-.021.036-.022.064-.043.1-.064.028-.022.07-.029.099-.043.078-.028.163-.057.248-.078.07-.021.141-.035.219-.05.064.022.127.05.184.078.057.029.128 0 .149-.056.014-.036.007-.071-.007-.107a.13.13 0 00.05-.014c-.128.32-.192.674-.22 1.015 0 .028.021.057.05.057.02 0 .042-.007.049-.029a8.29 8.29 0 00.432-.958v-.007c.014-.035.035-.12.078-.128.042-.014.113.043.141.071 0 0-.014.008-.021.015-.184.198-.191.518-.177.773 0 .029.021.05.05.05.02 0 .042-.021.042-.043.028-.206.078-.475.234-.617.12-.107.283-.071.417-.029a.095.095 0 00.128-.063c.014-.05 0-.1-.05-.121-.148-.071-.318-.107-.467-.064 0-.014 0-.028-.014-.036-.014-.014-.021-.028-.036-.042.369-.092.744-.192 1.105-.32.028-.007.042-.042.035-.063h.007zm3.802.255s.043-.021.043-.042c0-.022-.022-.043-.043-.043h-3.469a.086.086 0 00-.085.085c0 .043.036.078.078.085 1.154.05 2.322 0 3.476-.078v-.007zm11.86-8.205c.042 0 .077-.021.084-.064 0-.035-.021-.078-.057-.085-.134-.035-.276-.028-.375.078-.106.121-.127.298-.127.447 0 .384.028.767.078 1.15.078.554.247 1.108.559 1.576.014.021.05.028.07.014.022-.014.03-.035.022-.057a15.012 15.012 0 01-.354-1.582 9.833 9.833 0 01-.135-1.108c0-.099-.014-.234.05-.319.043-.064.12-.064.184-.057v.007zm2.612 1.753c.12.022.247-.056.347-.113a.072.072 0 00.028-.092c-.021-.029-.057-.043-.092-.029a.568.568 0 01-.184.064c-.043 0-.014-.035 0-.064.106-.22.22-.44.332-.66a18.231 18.231 0 00.8-1.781c.029-.071.057-.142.071-.22.021-.086.036-.2-.063-.242-.107-.042-.192.05-.234.128-.035.064-.07.135-.092.206a14.42 14.42 0 01-.354.852c-.135.305-.276.603-.418.908-.106.227-.212.468-.255.717v.014c-.02.12-.007.284.135.305l-.021.007zm2.145-3.314c-.106.028-.191.113-.262.191-.1.121-.184.249-.262.377-.198.32-.397.645-.602.965a6.632 6.632 0 00-.446.788c-.05.1-.106.262 0 .348.092.078.234.028.326-.008.035-.014.056-.056.042-.092-.014-.035-.05-.057-.085-.042a.444.444 0 01-.134.02l.021-.042.043-.064c.177-.24.346-.475.523-.71.227-.312.446-.624.645-.95.063-.107.134-.213.205-.313a.432.432 0 01.092-.106c.014.021.028.05.042.078.015.028.043.043.071.028.014 0 .022-.014.029-.021a.418.418 0 00.07-.241c-.007-.156-.155-.234-.297-.206h-.021zm.623.312c-.128.05-.24.135-.347.227a3.171 3.171 0 00-.425.54c-.191.27-.354.56-.495.866-.093.184-.178.369-.27.553-.035.078-.063.17.029.234a.239.239 0 00.05.022h.056c.014 0 .028-.014.035-.029h.015c.007 0 .014-.014.02-.021.1-.114.213-.227.312-.34.029-.029.022-.064.007-.1l.078-.106c.192-.263.376-.526.56-.788.12-.178.247-.355.36-.533a.555.555 0 01.121-.134v.02c0 .03.035.05.064.043.014 0 .021-.007.035-.02.05-.065.106-.129.113-.207.029-.184-.17-.262-.318-.213v-.014zm1.069.05a2.904 2.904 0 00-1.147.78 3.7 3.7 0 00-.531.753c-.106.199-.22.412-.262.639l-.043.248c0 .036 0 .071.029.092v.022c.007.007.021.021.035.021 0 0 .029.007.043.007.106 0 .17-.149.22-.22.013-.021.013-.043.013-.064v-.007c.1-.177.22-.333.347-.49.17-.227.354-.447.538-.66.29-.333.56-.674.829-1.029a.067.067 0 00-.014-.092.069.069 0 00-.064-.007l.007.007zm.573-.05c-.233.135-.424.355-.601.554v.007a3.525 3.525 0 00-.482.674s-.007.014-.014.021c-.07.135-.135.299-.106.455v.028c.014.078.05.156.127.185.071.028.135 0 .191-.036.036-.021.043-.07.022-.106-.022-.029-.057-.043-.085-.029-.022 0-.014-.014-.014-.035.014-.107.092-.22.148-.305.142-.213.326-.405.503-.597.17-.177.34-.362.538-.51.156-.114.311-.228.453-.356a.056.056 0 000-.078l-.014-.014c-.205-.113-.482 0-.666.12v.022zm1.317-.007a.7.7 0 00-.332.12c-.213.129-.383.334-.546.519a4.29 4.29 0 00-.517.717c-.063.113-.17.326-.014.411.114.057.27-.042.368-.099a.08.08 0 00.029-.106.082.082 0 00-.1-.036c-.02.007-.042.021-.07.028.007 0 .021-.02.028-.035.191-.213.382-.419.58-.618.15-.156.305-.326.482-.454.078-.057.156-.113.227-.177.042-.043.099-.092.127-.15.007-.014 0-.035 0-.049-.042-.078-.163-.1-.248-.092l-.014.021zm.376.383a9.897 9.897 0 00-.581.653c-.1.121-.191.242-.276.37-.05.078-.092.163-.12.255 0 .007-.008.014-.008.028-.02.107 0 .227.107.27.092.036.205 0 .29-.028a.077.077 0 00-.035-.149c-.036 0-.078.014-.114.014-.028 0-.021 0-.014-.022.106-.191.283-.354.432-.51a42.6 42.6 0 01.595-.604c.212-.206.424-.404.637-.603.021-.022.028-.057 0-.078-.014-.014-.029-.022-.043-.022-.332.015-.637.185-.87.412v.014zm2.23-.461c-.191.035-.368.149-.531.256-.262.177-.51.376-.75.581-.256.228-.518.448-.773.675-.092.085-.19.17-.283.255-.07.064-.063.163-.007.227a.135.135 0 00.071.036c.007 0 .014.007.021.007h.036c.177-.035.354-.064.53-.092.05-.007.086-.057.078-.114a.091.091 0 00-.091-.078h-.043c.269-.17.517-.369.75-.575.234-.206.468-.419.687-.646.128-.135.27-.284.361-.454.014-.028 0-.064-.028-.085-.014 0-.028-.007-.043 0l.015.007zm1.125.554s-.05-.029-.078-.022c-.34.163-.686.334-1.005.533-.191.12-.403.248-.538.425-.078.107-.163.32.021.384.114.042.262-.007.368-.036 0 0 .008-.007.015-.007a.132.132 0 00-.015.05v.014c0 .021.008.043.029.057v.007c.021.021.05.035.078.035h.092c.127 0 .255-.014.382-.02.043 0 .07-.044.07-.086 0-.036-.027-.057-.056-.064.177-.05.361-.1.538-.142.319-.092.637-.191.928-.348.106-.056.205-.12.29-.198a.362.362 0 00.12-.2c0-.035-.02-.07-.056-.07h-.014c-.163.014-.326.07-.482.113-.304.093-.609.192-.906.291a7.02 7.02 0 00-.538.213c-.106.05-.22.1-.305.185-.035.035-.07.078-.106.114 0-.015.007-.022 0-.036-.007-.043-.05-.064-.092-.064-.028 0-.064.007-.092.007.446-.355.9-.703 1.352-1.05.029-.022.036-.057.014-.085h-.014zm1.6.404a2.779 2.779 0 00-.644.334s-.007 0-.014.007c-.163.12-.312.248-.453.383l-.007.007c-.092.093-.213.22-.22.362v.014c0 .008.007.015.007.022.029.198.305.163.446.142.036 0 .064-.043.057-.078 0-.036-.035-.057-.07-.057-.072 0-.164.014-.234-.014.007-.022.028-.043.042-.064.043-.05.1-.1.149-.142.148-.12.304-.227.46-.327.184-.113.39-.191.602-.255.304-.1.609-.185.92-.256.028 0 .05-.035.043-.064 0-.014-.014-.028-.029-.035-.325-.156-.715-.1-1.04.014l-.015.007zm2.138.483c-.615-.014-1.238.213-1.798.447-.177.078-.354.149-.53.227-.079.036-.164.071-.241.114-.029.014-.057.035-.078.05v.006c-.007 0-.015.008-.022.015v.014c-.014.028-.02.057 0 .092a.056.056 0 00.029.029c.028.014.05.035.078.05.106.07.269.02.382-.015.191-.057.375-.128.56-.199.558-.227 1.118-.454 1.663-.724.035-.014.042-.056.028-.085-.014-.021-.035-.035-.056-.035l-.014.014zm-.729.54h-.007a2.07 2.07 0 00-.446.19c-.014 0-.028.008-.042.015-.078.05-.163.1-.241.156-.05.036-.1.093-.064.156 0 0 0 .014.014.022 0 0 .008.014.015.014.014.014.035.007.056.014.007 0 .014.007.022.014h.02l.334-.021c.042 0 .07-.036.063-.078 0 0-.007 0-.007-.007.128-.036.255-.064.382-.093.383-.085.758-.184 1.133-.283a.057.057 0 00.043-.071c0-.022-.029-.043-.05-.043-.39-.035-.821-.071-1.203.028l-.022-.014zm1.246 1.568c.092.035.192.057.284.064a.957.957 0 00.715-.213c.134-.05.262-.1.382-.163a.117.117 0 00.05-.157.216.216 0 00-.057-.056 4.411 4.411 0 00-.8-.27.194.194 0 00-.191-.135.768.768 0 00-.184.028c-.177.036-.354.093-.531.15a4.86 4.86 0 01-.46.12.075.075 0 00-.057-.007 4.59 4.59 0 01-.298.078h-.014c-.021 0-.042.021-.056.036a.065.065 0 00-.022.05c0 .013.007.028.007.042.008.028.015.05.036.064.021.014.042.028.07.028l.284.021c.212.022.425-.02.623-.085 0 .007.007.014.014.022l.043.042c0 .014-.022.029-.022.05-.028.127.057.227.17.277l.014.014zm-30.854-3.265l-.042.043a.114.114 0 00-.05-.029 4.19 4.19 0 00-.665-.042c-.1 0-.213.028-.305.092a.134.134 0 00-.078.05c-.099.141-.07.319 0 .468.085.17.206.326.34.461.149.15.312.284.496.39.184.107.39.185.594.242.135.035.27.035.411.021.028.021.057.043.085.057h.007c.248.156.63.27.864.028a.056.056 0 000-.078.054.054 0 00-.035-.014c-.227 0-.44-.135-.61-.262a1.853 1.853 0 01-.382-.362 2.338 2.338 0 01-.24-.405c-.064-.128-.107-.27-.15-.405.1.008.206.036.298.071.184.064.368.142.545.22.05.022.114 0 .135-.05a.112.112 0 00-.043-.134c-.269-.15-.552-.32-.856-.398a.47.47 0 00-.312 0l-.007.036zm-.099 1.086a2.382 2.382 0 01-.425-.32 1.72 1.72 0 01-.297-.347.33.33 0 01-.064-.17c.028-.03.12-.05.17-.057.191-.029.39-.022.588-.015a.415.415 0 00-.014.093v.014c.007.198.056.397.141.582.057.12.135.234.213.34-.107-.042-.213-.07-.305-.127l-.007.007zm-5.94.348a1.622 1.622 0 00-.503.404c-.12.135-.283.362-.17.547 0 0 .05.064.085.078.192.092.397-.093.517-.227.1-.114.206-.227.333-.313.1-.063.22-.07.333-.07.141 0 .29.035.41.113.135.092.248.199.354.312.071.078.135.17.184.263.036.07.064.142.1.22.014.021.02.042.042.064.007.007.021 0 .035.014.015.007.029.014.043.014a.201.201 0 00.092 0h.014s.007-.014.014-.014c.014-.007.036-.007.05-.021a.289.289 0 00.035-.064.173.173 0 000-.085c0-.015-.007-.029-.014-.043-.028-.057-.05-.12-.078-.177-.007-.022-.021-.036-.028-.05l-.043-.085c-.12-.263-.247-.518-.382-.774a.865.865 0 01-.085-.22c0-.007-.021-.07 0-.078.028-.014.07-.007.106 0 .029 0 .057.014.085.021v.114c0 .206.021.44.135.617a.502.502 0 00.623.192c.028-.014.042-.043.028-.071 0-.007-.014-.014-.021-.021a.857.857 0 01-.27-.305c-.063-.121-.056-.291-.056-.426 0-.128-.014-.298.05-.42.021-.042.063-.049.106-.042.12 0 .24.029.354.057.035.17.156.334.255.454.127.156.262.327.439.44a.132.132 0 00.035.029c.12.07.262.12.404.1a.339.339 0 00.269-.235.154.154 0 00.035.021s0 .007.007.014a3.6 3.6 0 00.425.44l.007.008c.078.063.184.184.29.198.036 0 .064 0 .093-.014a.215.215 0 00.099-.135v-.007c0-.042 0-.092-.036-.135a2.761 2.761 0 00-.474-.482 1.47 1.47 0 01-.106-.114 7.505 7.505 0 01-.743-1.1c.006.007.02.014.028.021.077.057.141.128.212.192.142.135.276.27.41.404.326.32.659.632 1.02.916.149.114.297.227.46.312.106.057.227.114.347.114.028 0 .057-.021.057-.05v-.028a1.176 1.176 0 00-.227-.27c-.127-.128-.269-.241-.41-.355a16.857 16.857 0 01-1.013-.873 5.671 5.671 0 00-.439-.383c.036 0 .064.007.1.014.014 0 .02 0 .035-.007.028 0 .05-.021.056-.05 0-.02 0-.042-.02-.064-.008 0-.015-.014-.022-.02h-.014c-.014 0-.022 0-.036-.008-.233-.07-.474-.135-.708-.213h-.014c-.12-.028-.19.085-.184.199.007.106.057.206.1.305.056.135.134.263.197.398 0 0-.007 0-.014-.008-.05-.035-.092-.07-.141-.099-.12-.078-.241-.163-.368-.22a.34.34 0 00-.277-.007 2.517 2.517 0 00-.46-.092.566.566 0 00-.474.177.702.702 0 00-.142.34c-.127-.042-.269-.07-.375.015-.177.142-.078.419-.007.59a2.138 2.138 0 00-.517-.242c-.22-.071-.46-.085-.672.021l.035-.035zm3.49 0c.043.042.107.113.1.177-.043 0-.078-.035-.107-.057a2.426 2.426 0 01-.276-.32c.1.058.198.114.283.2zm5.296-1.342a5.6 5.6 0 00-.835-.156l-.206-.021c-.177-.142-.354-.284-.538-.412-.07-.05-.141-.1-.212-.142a.49.49 0 00-.092-.035h-.07c-.164 0-.284.142-.284.305a.1.1 0 00.014.042v.015a.19.19 0 00.021.085s.014.007.014.014l.015.014c.007.014.02.021.035.036l.035.035s.008 0 .015.007l.007.007h.007c.078.036.156.064.233.1.057.028.12.056.177.085-.007.014-.028.028-.035.05a.269.269 0 000 .106c.028.114.135.184.248.206l.184.021a.656.656 0 00-.05.433c.043.185.149.355.284.49.162.17.353.312.552.44.156.1.318.199.495.27.106.042.241.092.361.07.029 0 .05-.035.043-.063 0-.007 0-.014-.007-.022a1.144 1.144 0 00-.24-.248 3.975 3.975 0 00-.447-.327 3.19 3.19 0 01-.489-.39.854.854 0 01-.205-.32.685.685 0 01-.028-.24.128.128 0 01.064-.043c.014 0 .028 0 .042-.007.043 0 .092.021.135.028.162.064.332.092.51.1.028.007.056.007.084.014.128.042.255.092.383.142.028.127.063.255.092.383a.076.076 0 00-.05.021.092.092 0 00-.028.085v.008c0 .02.014.035.021.05a.103.103 0 00.064.042c.021 0 .042.007.064.014.035.128.07.263.12.39a4.796 4.796 0 00.276.632c.085.156.177.305.297.44a.75.75 0 00.248.199c.07.035.22.056.255-.043v-.035c0-.057-.05-.107-.078-.15a4.826 4.826 0 00-.163-.212 1.579 1.579 0 01-.22-.384 15.034 15.034 0 01-.24-.603c0-.007 0-.014-.007-.021.043.028.085.064.127.092.248.178.482.37.708.575.241.22.482.447.737.646.021.021.056.014.07-.007 0 0 .008-.014.008-.022.028-.134-.064-.283-.135-.383a2.696 2.696 0 00-.453-.49 8.47 8.47 0 00-.736-.596c-.029-.021-.057-.042-.085-.056.014 0 .035 0 .05-.008.049.05.098.093.148.15.12.141.283.248.474.276.184.029.361 0 .531-.07.156.312.347.61.574.88.021.02.05.028.07 0 .015-.015.022-.036.015-.05a4.44 4.44 0 00-.248-.731.309.309 0 00.07-.135c.015-.071.029-.142.043-.22.036-.192.078-.383.135-.568.007-.035-.007-.071-.043-.078h-.035a.795.795 0 00-.46.383 5.017 5.017 0 00-.227-.433 2.671 2.671 0 01-.205-.433.523.523 0 01-.036-.255c.022-.092.092-.128.184-.12a.084.084 0 00.085-.072c0-.035-.02-.07-.056-.078-.184-.05-.354 0-.446.178v.007a.628.628 0 00-.043.44c.05.177.135.34.22.496.113.2.212.405.311.61a.745.745 0 01-.375-.013.525.525 0 01-.262-.234c0-.008-.007-.015-.014-.029h.028c.092-.021.142-.114.12-.206a.16.16 0 00-.155-.12c-.078 0-.156-.015-.234-.022-.05-.056-.092-.12-.148-.17a2.258 2.258 0 00-.447-.327c-.014-.056-.035-.113-.042-.17v-.057c.07 0 .142-.007.212 0 .177.007.347.029.524.05 0 0 .057-.014.057-.043a.064.064 0 00-.028-.056 6.721 6.721 0 00-.623-.249c-.128-.042-.29-.085-.411-.007h-.021v.014c-.022.022-.036.05-.05.071-.007-.014-.021-.028-.028-.042a2.517 2.517 0 01-.1-.192c-.02-.064-.042-.128-.063-.199 0-.014-.014-.028-.021-.042 0-.014 0-.022-.007-.036 0 0-.007-.007-.007-.014s0-.021-.015-.035c0 0-.014 0-.02-.015 0 0-.015-.007-.022-.014-.021-.007-.043-.014-.064 0h-.035a.108.108 0 00-.036.043l-.007.007c-.02.05 0 .106.014.156l.12.511-.063-.021v.028zm5.784 2.158a.087.087 0 00-.099-.057 1.25 1.25 0 01-.332.028 92.875 92.875 0 00-.064-1.987s-.028-.057-.064-.057a.056.056 0 00-.056.057 41.24 41.24 0 00-.107 1.618c0 .085 0 .17-.007.249-.134-.15-.269-.298-.403-.455-.106-.12-.213-.248-.319-.368-.021-.057-.035-.121-.07-.17a.437.437 0 00-.234-.185c-.142-.17-.29-.334-.432-.504a.071.071 0 00-.106-.008c-.022.022-.036.05-.029.079.149.546.397 1.086.786 1.504.17.178.39.39.637.44h.03a.618.618 0 00.113.015c0 .12 0 .24.014.361s.035.256.1.37c.042.07.12.113.204.106.008 0 .015.007.022.007h.021c.205-.064.39-.177.566-.298a.055.055 0 00.014-.07c-.014-.022-.049-.03-.07-.015-.156.1-.347.213-.538.22-.05-.085-.036-.234-.029-.327v-.361c.128-.022.248-.057.368-.1.043-.014.071-.064.057-.106l.028.014zm-9.89 8.176s.035-.021.035-.042c.014-.114.036-.234.071-.341.014-.043.035-.1.07-.128.128-.106.326-.142.482-.177a.065.065 0 00.05-.085.065.065 0 00-.078-.05c-.191.028-.382.05-.566.12-.114.043-.163.164-.17.277-.014.135.014.27.05.398 0 .028.035.042.056.035v-.007zm9.749.327s-.043.028-.057.05v-.079c0-.113 0-.248.043-.355.014-.042.042-.07.092-.07.042 0 .085-.036.085-.078a.09.09 0 00-.064-.086c-.127-.035-.24.022-.312.128-.092.128-.12.298-.134.454-.035.37-.078.745-.12 1.115a32.715 32.715 0 01-.241 1.64c-.092.304-.184.61-.29.908-.177.49-.354.98-.546 1.469a5.98 5.98 0 00-.311.972c-.043.206-.092.44-.043.646.008.043.05.064.093.057a.039.039 0 00.035-.021c.148-.142.262-.341.36-.526.164-.298.291-.603.419-.915.198-.49.39-.987.566-1.484.078-.212.149-.433.22-.645.014-.015.014-.029.014-.05.085-.27.162-.54.233-.81.078-.312.17-.638.192-.957v-.022a5.592 5.592 0 00-.036-.844c0-.064-.007-.128 0-.192 0-.035.064 0 .085.021.057.029.12.007.156-.042a.12.12 0 00-.021-.135c-.114-.107-.262-.206-.418-.128v-.021zm73.064 82.311l-.021-.128c-.035-.22-.127-.433-.205-.646-.177-.461-.39-.908-.595-1.355a26.208 26.208 0 00-.885-1.746c-.141-.249-.29-.497-.432-.746-.184-.369-.368-.745-.552-1.114-.432-.852-.864-1.703-1.317-2.541-.347-.639-.694-1.27-1.055-1.902a33.222 33.222 0 00-1.996-3.095c-.043-.064-.099-.12-.142-.184.057 0 .113-.022.17-.029.156-.014.312-.028.467-.035a5.857 5.857 0 00-.637-.689 7.856 7.856 0 00-.821-.617 10.813 10.813 0 00-.998-.582h-.007a21.265 21.265 0 00-1.154-.539 36.728 36.728 0 01-.942-.419c-.043-.135-.092-.263-.135-.398-.177-.546-.339-1.1-.509-1.653a.145.145 0 00-.177-.1.13.13 0 00-.099.128 56.343 56.343 0 00-.107 1.505c-.191-.1-.382-.185-.566-.298a5.592 5.592 0 00-1.097-.526h-.008c-.007 0-.021 0-.028-.007-.071-.021-.149-.035-.226-.057-.184-.063-.369-.127-.553-.184a4.635 4.635 0 01-1.111-.504 11.36 11.36 0 01-.963-.71c-.276-.227-.566-.454-.885-.61l-.007-.007c-.007 0-.014-.007-.021-.014-.354-.171-.758-.178-1.133-.128a2.454 2.454 0 00-1.105.419c-.141.092-.276.191-.417.283a.324.324 0 00-.05.043 24.344 24.344 0 00-1.557-.468h-.015c-.658-.171-1.331-.277-2.003-.37a21.437 21.437 0 01-.97-.149c-.163-.028-.333-.056-.489-.106-.29-.092-.559-.256-.821-.405a7.14 7.14 0 00-1.005-.511 5.037 5.037 0 00-.899-.241h-.015a37.182 37.182 0 00-1.281-.206 17.934 17.934 0 01-1.529-.291 16.39 16.39 0 01-1.324-.369c-.397-.135-.793-.262-1.19-.39a13.731 13.731 0 00-1.6-.369 14.313 14.313 0 01-1.458-.313 7.043 7.043 0 01-.977-.354c-.411-.178-.8-.398-1.19-.625a18.693 18.693 0 00-1.281-.696h-.007c-.475-.227-.97-.418-1.466-.596h-.007c-.46-.163-.927-.333-1.38-.518a6.29 6.29 0 01-.857-.419 8.577 8.577 0 01-.432-.291c.014 0 .021-.014.028-.021a.243.243 0 00.05-.043.307.307 0 00.085-.106c.014-.014.021-.036.028-.05a.586.586 0 00.043-.149c0-.014.007-.021.007-.028v-.107c0-.028 0-.056-.014-.085v-.028s-.015-.014-.015-.029a.573.573 0 00-.127-.198v-.007a.58.58 0 00-.142-.093c-.042-.021-.077-.035-.12-.056a.79.79 0 00-.205-.05h-.043a.728.728 0 00-.177.028h-.014a9.774 9.774 0 01-.637-.07 3.499 3.499 0 01-.715-.178c-.106-.043-.213-.1-.319-.142.142 0 .283-.014.418-.007a.071.071 0 00.071-.071c0-.036-.029-.071-.064-.071a7.539 7.539 0 00-.566-.022c-.064 0-.128 0-.199.015a7.612 7.612 0 01-.573-.334c-.304-.192-.588-.426-.87-.646a24.11 24.11 0 01-1.042-.88 25.95 25.95 0 00-1.352-1.128 18.485 18.485 0 01-.425-.355c.014-.014.036-.029.05-.043.375-.326.517-.83.439-1.313-.064-.404-.248-.78-.474-1.121a.22.22 0 00-.312-.064.184.184 0 00-.092.135 4.02 4.02 0 01-.29.866.96.96 0 01-.107.184h-.099c-.198.021-.368.12-.446.305 0 0-.007.007-.007.014v.043c-.021.064-.042.128-.05.192-.247.213-.502.419-.75.631a24.36 24.36 0 00-1.557 1.399c-.44.44-.871.894-1.289 1.362-.347.39-.708.774-1.083 1.136a8.075 8.075 0 01-1.09.866l-1.424.958c-.446.305-.899.603-1.352.901-.467.306-.934.618-1.402.93-.41.277-.842.547-1.281.774-.404.206-.814.404-1.225.582-.467.206-.934.404-1.402.596-.41.17-.821.334-1.246.461a5.467 5.467 0 01-.75.192c-.354.057-.722.043-1.084.043-.424 0-.85 0-1.274-.036a14.17 14.17 0 01-1.097-.135c-.41-.064-.829-.149-1.232-.248a10.25 10.25 0 01-1.126-.362c-.495-.192-1.005-.362-1.508-.532h-.014a21.566 21.566 0 01-1.31-.455 4.178 4.178 0 01-.736-.369 9.498 9.498 0 01-.701-.482 5.858 5.858 0 00-.85-.533l-.007-.007c-.007 0-.014-.007-.021-.014a19.12 19.12 0 00-1.104-.518s-.015 0-.015-.007a8.652 8.652 0 01-1.055-.54c-.424-.269-.835-.56-1.245-.858a10.824 10.824 0 00-1.678-1.008h-.015c-.382-.178-.771-.37-1.118-.61a9.055 9.055 0 01-.78-.597c-.445-.376-.905-.73-1.365-1.086a16.71 16.71 0 01-1.43-1.206 8.823 8.823 0 01-.815-.895 6.194 6.194 0 01-.46-.667c-.156-.27-.297-.546-.439-.823a22.92 22.92 0 01-.651-1.349c-.092-.198-.199-.39-.29-.582.007 0 .014.007.028.007.283.022.51-.205.594-.454.114-.32.192-.66.27-.994.127-.546.226-1.1.304-1.653v-.014c.149-1.008.205-2.023.276-3.038.064-1.001.12-2.002.276-2.988.071-.455.149-.916.177-1.377v-.015c.014-.24.014-.49.014-.73 0-.448 0-.902-.007-1.35a56.024 56.024 0 00-.056-2.44v-.015a63.95 63.95 0 00-.128-2.001c-.021-.341-.05-.682-.085-1.015a8.55 8.55 0 00.106-.59c.015.022.022.05.036.072.297.596.637 1.163.984 1.731.41.66.85 1.3 1.317 1.924.53.724 1.09 1.426 1.663 2.115.17.206.34.404.51.603.12-.163.248-.32.383-.461.028-.036.063-.064.099-.093.113-.113.233-.234.354-.34-.135-.163-.262-.334-.397-.497-.021-.028-.042-.05-.063-.078.141 0 .29 0 .431-.014.036 0 .064-.036.064-.071a.071.071 0 00-.07-.071c-.185 0-.376-.007-.567-.029a56.951 56.951 0 01-1.43-1.802 32.767 32.767 0 01-1.289-1.832 25.319 25.319 0 01-.977-1.625c-.24-.44-.467-.88-.68-1.334-.084-.185-.155-.37-.233-.554 0-.227-.007-.454-.021-.681.085.113.17.227.248.348.318.46.615.944.906 1.426.439.71.885 1.405 1.352 2.094a44.792 44.792 0 001.678 2.32c.51.66 1.02 1.328 1.508 2.002.34.469.687.93 1.048 1.377.332.412.686.802 1.062 1.164a8.84 8.84 0 001.232 1.015c.53.362 1.104.66 1.685.93 1.31.618 2.647 1.15 4 1.675.064.021.134 0 .156-.07a.121.121 0 00-.043-.143c-1.196-.816-2.428-1.611-3.738-2.243-.538-.255-1.07-.532-1.558-.873a9.262 9.262 0 01-1.125-.922 12.318 12.318 0 01-1.006-1.086c-.36-.433-.7-.88-1.04-1.335a60.122 60.122 0 00-1.558-1.987v-.007a47.81 47.81 0 01-1.713-2.236 57.246 57.246 0 01-1.388-2.037c-.312-.475-.623-.958-.956-1.42v-.007c-.375-.51-.772-1.007-1.161-1.504a43.665 43.665 0 01-.694-.902 5.849 5.849 0 01-.297-.433s0-.014-.007-.02v-.015a15.95 15.95 0 01-.468-1.129c-.035-.092-.063-.191-.099-.29.22-.213.397-.469.446-.767.008-.057-.028-.1-.078-.114a.11.11 0 00-.07-.106c-.199-.071-.432-.135-.645-.092a121.09 121.09 0 01-.41-1.512 46.795 46.795 0 00-.829-2.79c-.219-.667-.446-1.334-.63-2.015-.099-.355-.19-.717-.276-1.072-.127-.575-.233-1.157-.34-1.739-.127-.696-.255-1.391-.36-2.087a25.295 25.295 0 01-.298-3.407 106.83 106.83 0 01-.028-1.504c0-.128 0-.256.014-.376.035.007.07.02.092.028.156.043.297.107.446.17.042.022.092 0 .106-.042.014-.043 0-.085-.035-.107-.22-.12-.44-.248-.666-.355h-.021c-.142-.05-.262.078-.312.206-.056.15-.07.306-.092.462-.05.51-.056 1.022-.063 1.533 0 .61.007 1.22.05 1.824a32.9 32.9 0 00.148 1.66c.085.71.191 1.413.304 2.116.092.589.184 1.185.29 1.774.071.376.156.753.248 1.122.17.695.383 1.384.588 2.072.276.909.531 1.831.75 2.761.15.632.298 1.256.475 1.88a.624.624 0 00.035.107 1.934 1.934 0 01-.354.05 5.76 5.76 0 01-.856-.028 4.025 4.025 0 01-.758-.17 3.751 3.751 0 01-.255-.1 1.078 1.078 0 00-.708-.298l-.233-.107a11.245 11.245 0 01-1.211-.61 6.781 6.781 0 01-.694-.49 4.366 4.366 0 01-.552-.532c-.234-.27-.489-.518-.744-.767-.198-.184-.396-.39-.53-.624-.241-.412-.425-.859-.624-1.292a16.118 16.118 0 01-.693-1.753 36.406 36.406 0 00-.539-1.554 32.223 32.223 0 01-.615-1.817l-.17-.554-.107-1.278a191.028 191.028 0 01-.155-3.506c-.022-.674-.043-1.348-.057-2.023-.007-.326-.021-.653-.021-.98 0-.262 0-.524.021-.787.007-.163.021-.32.057-.483 0-.007.007-.014.014-.014a.4.4 0 01.156-.05.963.963 0 01.29.022c-.043.106-.106.213-.149.326-.113.298-.212.646-.141.973v.021c.035.156.12.305.276.362.148.057.318.007.46-.05a.082.082 0 00.042-.1c-.014-.035-.056-.056-.092-.042-.092.029-.226.064-.318.007-.071-.042-.092-.142-.092-.22-.014-.284.092-.567.19-.83.036-.092.079-.17.121-.263a.118.118 0 00.078-.142s0-.007-.007-.014c.1-.22.184-.447.297-.66.071-.142.15-.284.227-.419a.784.784 0 01.12-.177s.05-.036.078-.043a.564.564 0 01.106.121c.078.1.15.206.213.32.233.368.474.737.736 1.092.27.37.56.717.878 1.044.361.362.736.702 1.133 1.029.368.305.729.624 1.062.972a.055.055 0 00.078 0 .055.055 0 00.014-.056c-.184-.476-.538-.866-.928-1.186-.382-.32-.757-.653-1.104-1.008a9.567 9.567 0 01-.85-1c-.255-.348-.495-.71-.722-1.072a3.517 3.517 0 00-.297-.426c-.078-.092-.184-.199-.312-.192a.486.486 0 00-.34.164c-.07.07-.12.163-.17.24a6.504 6.504 0 00-.233.434c-.092.177-.163.362-.24.54a1.298 1.298 0 00-.383-.121h-.007a.775.775 0 00-.46.028 7.03 7.03 0 01.084-.866c.057-.334.128-.66.213-.986.014-.057.035-.114.057-.17.184-.043.368-.093.545-.157.226-.078.467-.1.708-.106.255 0 .517 0 .764.064a6.89 6.89 0 011.451.532c.17.085.355.177.496.305.107.1.22.199.34.277h.007c.177.142.425.127.637.085.036 0 .064-.043.057-.078 0-.036-.042-.064-.078-.057-.092.007-.205.014-.29-.035-.021-.015-.043-.029-.035-.057.042-.206-.05-.419-.177-.575a2.707 2.707 0 00-.602-.497 5.187 5.187 0 00-.8-.44 4.78 4.78 0 00-.807-.291 3.813 3.813 0 00-.985-.114c-.332 0-.672.036-.99.142a2.297 2.297 0 01-.482.128.38.38 0 00-.177.064c-.297.128-.474.44-.545.752v.008c-.085.34-.156.688-.227 1.036-.05.241-.078.49-.099.738a.545.545 0 00-.106.014c.028-.156.056-.32.092-.475a27.185 27.185 0 01.864-3.01c.113-.333.247-.667.368-.994.184.022.368.015.545-.042.311.816 1.02 1.391 1.812 1.703.064.029.142 0 .163-.07a.138.138 0 00-.021-.128c-.481-.561-.9-1.193-1.119-1.902a5.198 5.198 0 01-.198-1.505c0-.22.014-.44.014-.66 0-.007.007-.022.014-.029a4.11 4.11 0 01.44-.603c.12-.128.247-.255.382-.362.063-.05.177-.057.248-.064.141-.014.297-.035.439-.028.106.007.212.042.318.07.198.058.396.114.602.171l.12.021c-.064.263-.141.526-.198.788a19.95 19.95 0 00-.29 1.441c-.064.39-.114.78-.128 1.171 0 .241.036.469.106.696-.084.213-.148.44-.134.667 0 .078.014.163.042.241l.022.064c.007.028.028.05.042.078a.803.803 0 00.198.262c.022.022.036.05.057.065.021.014.042.014.057.028.05.028.099.05.148.071.05.014.092.035.149.043.05.007.1 0 .149 0 .056 0 .113 0 .163-.022.02 0 .042 0 .063-.007.029-.007.043-.028.071-.042a.77.77 0 00.163-.1c.021-.014.05-.021.064-.042.014-.014.035-.029.05-.05.14-.135.254-.305.36-.468.184-.263.376-.519.567-.767.247-.327.502-.639.771-.944.354-.405.659-.859.928-1.327.184-.327.368-.646.552-.973.163-.284.305-.582.425-.887.198-.475.333-.972.467-1.469.12-.44.24-.88.39-1.313.113-.327.226-.653.346-.98a13.576 13.576 0 01.779-1.718c.142-.276.29-.546.446-.815.135-.242.276-.483.418-.724.113-.192.24-.384.375-.561.206-.277.418-.54.63-.81a10.4 10.4 0 011.027-1.064c.36-.333.73-.674 1.118-.972.312-.242.63-.476.95-.696.346-.241.693-.482 1.047-.717.34-.227.68-.447 1.034-.653.347-.205.7-.411 1.047-.61s.701-.397 1.048-.603a38.705 38.705 0 002.047-1.257c.34-.22.672-.454.998-.688.51-.362 1.012-.724 1.522-1.093a50.185 50.185 0 011.607-1.129c.368-.255.743-.496 1.126-.738l1.062-.681c.297-.192.594-.383.899-.568.156-.092.297-.192.446-.298.17-.085.34-.17.517-.248a43.35 43.35 0 011.678-.774c.481-.213.97-.419 1.458-.61a18.98 18.98 0 001.232-.533c.227-.106.439-.234.651-.362.078-.05.213.029.276.071l.085.043c-.042.092-.063.191-.02.29a.36.36 0 00.24.214c.085.021.184 0 .248-.064.113-.021.226-.036.332-.057h.036c.085.028.163.064.248.092.063.022.134-.007.155-.07a.123.123 0 00-.014-.086c.361-.064.715-.135 1.07-.22l.785-.192c.106.043.206.093.312.128.375.135.75.249 1.133.348.431.114.87.206 1.31.298.403.078.814.142 1.217.206.1.07.198.142.29.213.418.326.843.646 1.275.958.375.27.75.532 1.132.78.277.185.546.363.808.561.205.157.403.313.601.476.22.178.44.355.652.532.19.157.375.334.545.518.22.235.439.476.658.71.34.362.652.753.956 1.143.474.59.949 1.171 1.43 1.746.46.547.92 1.1 1.38 1.647.312.369.624.738.921 1.121a9.462 9.462 0 01.807 1.171c.1.163.191.334.27.511.084.178.162.362.233.547.113.298.22.596.326.901.148.426.311.838.51 1.242v.007c0 .014.014.029.02.043.156.326.333.646.517.951 0 .007 0 .014.008.021.014.021.028.05.042.071.092.15.191.298.255.462.042.099.078.198.106.305-.007.127 0 .255.014.383.022.163.064.32.106.476.05.163.064.34.085.504.05.383.092.773.128 1.163.085.909.17 1.818.248 2.719.063.71.134 1.426.233 2.136.064.454.128.944.326 1.37.142.312.453.575.814.56a.633.633 0 00.298-.084c.247-.142.382-.426.417-.703.057-.412.057-.837.064-1.25.007-.496 0-.993-.021-1.49.014.043.035.085.049.128.085.27.149.547.213.823.07.306.127.61.17.916.049.32.092.639.127.965.043.433.085.866.12 1.306.05.575.255 1.221.73 1.59.085.064.198.05.269-.035.007-.008.014-.022.021-.029.255-.49.29-1.093.248-1.632a85.84 85.84 0 00-.121-1.335c-.035-.34-.085-.681-.134-1.022-.014-.092-.043-.177-.064-.262a.96.96 0 00.644.092c.057-.014.107-.035.163-.057h.014c.015-.007.036-.014.05-.021a.819.819 0 00.234-.178v-.007a.952.952 0 00.191-.326l.021-.036c.014-.042.021-.092.028-.134 0-.008 0-.022.007-.029a1.082 1.082 0 000-.213s-.007-.028-.007-.035c-.014-.107-.028-.22-.049-.32-.05-.276-.092-.546-.142-.823a60.053 60.053 0 01-.411-2.74 711.25 711.25 0 01-.453-3.534l-.339-2.733c-.114-.866-.234-1.725-.354-2.59a12.367 12.367 0 00-.241-1.335c-.007-.028-.021-.057-.028-.092a2.503 2.503 0 000-.56l-.043-.42c.064.192.12.384.191.575.021.057.036.121.057.178.141.553.29 1.1.453 1.646.071.22.142.448.212.668.029.163.064.326.092.496.078.533.149 1.065.213 1.597.071.554.148 1.115.262 1.661 0 0 .007.057.014.085l.255 1.214c.092.44.163.894.219 1.342.078.596.156 1.2.227 1.802v.015c.064.61.184 1.22.34 1.817.078.312.17.624.262.93-.022.248-.05.503-.05.752-.014.589.078 1.185.163 1.774l-.34 1.526c-.014.05.021.1.071.114.042.007.085-.008.106-.05 0-.014.014-.021.014-.035-.056.283-.12.567-.184.844-.092.376-.177.76-.248 1.136-.07.362-.085.73-.085 1.093 0 .163 0 .326.007.49a2.72 2.72 0 00-.382.248h-.007c-.361.27-.687.589-1.012.901-.192.185-.39.37-.56.568-.113.135-.247.291-.269.468v.015c0 .05 0 .1.022.142.056.191.24.326.453.305.141-.014.283-.078.41-.135a.191.191 0 00.092-.255.163.163 0 00-.113-.093l.007-.007c.156-.149.319-.298.482-.44.304-.262.601-.546.934-.78v.028a.254.254 0 00.269.234.22.22 0 00.184-.106c.099-.135.191-.277.283-.42h.029c.056.27.148.533.276.774a.161.161 0 00.219.064c.022-.007.036-.021.05-.042.184-.227.34-.483.46-.753a.93.93 0 01.283.078c.156.071.305.17.425.299.149.163.255.354.354.553.113.227.205.469.269.717.071.284.12.575.17.859.071.468.113.937.149 1.405.007.092.007.185.014.27a9.073 9.073 0 00-.475-1.554 11.931 11.931 0 00-.339-.824 2.096 2.096 0 00-.262-.475.883.883 0 00-.701-.327c-.248 0-.496.043-.744.085-.254.05-.509.114-.736.249h-.028c-.255.156-.475.383-.68.603a7.242 7.242 0 00-.757.923c-.192.277-.39.553-.602.823a5.84 5.84 0 01-.595.653c-.163.156-.347.397-.29.639 0 .014 0 .035.007.05.078.191.233.312.446.255.042-.007.064-.05.057-.092-.008-.036-.043-.057-.078-.057-.107 0-.135-.064-.135-.163 0-.043.028-.078.057-.107.063-.078.148-.142.226-.206.255-.191.489-.404.715-.631.248-.256.489-.518.708-.795.234-.284.482-.554.744-.816.17-.17.347-.362.552-.476.149-.085.34-.114.51-.135.205-.028.417-.057.63-.057.049 0 .085.014.12.05.078.085.121.213.17.312.113.249.22.497.326.753.233.582.559 1.185 1.048 1.59.035.028.092.02.127 0 .021.298.043.596.057.9.007.377 0 .753-.014 1.122-.022.455-.149.909-.284 1.342-.155.475-.311.95-.495 1.412a47.19 47.19 0 01-.701 1.626c-.241.532-.482 1.064-.687 1.604-.12.305-.248.61-.389.908-.149.313-.326.61-.517.902-.262.404-.531.809-.8 1.213a39.64 39.64 0 01-.871 1.257c-.262.361-.524.723-.8 1.078-.262.348-.524.703-.772 1.058-.262.369-.545.717-.842 1.058a4.29 4.29 0 01-.39.411.674.674 0 01-.113.092.847.847 0 01-.326.029c-.155 0-.311-.022-.46-.071a.49.49 0 01-.184-.107c-.205-.206-.474-.425-.779-.44-.056 0-.106 0-.155.014-.043.008-.071.036-.107.05 0-.014.008-.021.015-.035v-.007a27.4 27.4 0 01.297-1.093c.106-.377.205-.76.29-1.143v-.014c.106-.455.177-.909.227-1.37.049-.405.099-.81.163-1.214.077-.461.113-.923.148-1.384a17.1 17.1 0 01.156-1.455c.071-.454.142-.901.205-1.356a31.2 31.2 0 00.206-1.625 33.44 33.44 0 00.134-1.867c.028-.553.064-1.1.135-1.646.078-.59.184-1.179.29-1.76.099-.54.205-1.08.276-1.626.057-.44.078-.887.085-1.327 0-.206.007-.419.028-.625.007-.1.015-.213.05-.305.078-.184.283-.234.46-.241.05 0 .085-.043.085-.093 0-.042-.035-.078-.078-.085-.276-.028-.573.029-.736.277-.078.114-.106.263-.128.398a5.25 5.25 0 00-.056.66c-.021.433-.043.858-.106 1.284a29.73 29.73 0 01-.291 1.604 30.78 30.78 0 00-.311 1.789c-.078.56-.113 1.121-.142 1.69a26.726 26.726 0 01-.382 3.442l-.234 1.348c-.085.497-.141.994-.184 1.498a22.01 22.01 0 01-.141 1.348c-.064.412-.114.824-.163 1.235-.057.44-.135.873-.248 1.3-.1.375-.212.744-.326 1.12-.113.37-.226.732-.332 1.1a7.937 7.937 0 01-.503 1.25c-.27.54-.517 1.093-.75 1.647-.213.504-.44 1-.709 1.476-.226.397-.467.78-.722 1.157a31.69 31.69 0 01-1.026 1.377c-.361.454-.722.908-1.112 1.334-.333.37-.672.738-1.02 1.1-.41.426-.8.873-1.182 1.327-.347.405-.687.817-1.04 1.214-.305.34-.624.674-.95.994a14.6 14.6 0 01-1.181 1.043c-.369.291-.744.59-1.12.873a29.1 29.1 0 01-1.21.859c-.56.376-1.104.774-1.642 1.185-.369.277-.73.561-1.105.83a3.39 3.39 0 01-.56.327c-.318.156-.658.263-.997.376-.489.164-.97.355-1.438.582a7.066 7.066 0 01-.984.42 5.366 5.366 0 01-.878.184 5.767 5.767 0 00-.842.191c.17.263.297.54.396.838.191-.05.39-.093.588-.128.34-.05.687-.114 1.02-.22a7.5 7.5 0 001.104-.476c.432-.212.878-.404 1.331-.574.361-.135.722-.27 1.062-.448h.014c.234-.12.46-.255.673-.411.375-.277.743-.554 1.118-.838.524-.397 1.062-.78 1.614-1.143a28.54 28.54 0 002.4-1.753c.433-.347.857-.71 1.254-1.1.34-.333.672-.681.991-1.043.354-.405.708-.816 1.055-1.22.248-.292.503-.562.757-.846a4.32 4.32 0 00-.085.788c-.035.909-.077 1.817-.198 2.719a33.35 33.35 0 00-.198 1.668c-.043.44-.043.887-.057 1.334a161.11 161.11 0 00-.042 2.62c-.014 1.497-.043 2.994 0 4.492.014.632.035 1.27.113 1.902.043.326.085.653.142.972a.666.666 0 00.205.37c.156.127.397.156.545 0 .014-.015.021-.029.036-.043.085-.142.056-.327.028-.483-.057-.305-.1-.61-.142-.915a22.397 22.397 0 01-.162-1.824c-.093-1.484-.093-2.974-.107-4.458-.007-.873-.014-1.739-.014-2.612 0-.425 0-.866.028-1.291.043-.554.1-1.108.156-1.654.092-.923.085-1.853.064-2.775-.007-.398-.014-.845.156-1.221.092-.206.255-.334.488-.32.057 0 .1-.035.106-.092a.107.107 0 00-.078-.106c-.042-.007-.077 0-.113 0 .191-.206.383-.405.574-.618a19.33 19.33 0 001.118-1.398v-.007c.347-.469.694-.944 1.013-1.434v-.007c.262-.397.495-.809.715-1.228v-.014c.262-.504.495-1.03.715-1.554.227-.547.467-1.093.708-1.633.035-.078.064-.156.099-.234.05.149.127.284.227.404h.007c.22.242.502.426.814.54l.092.021a3.96 3.96 0 00-.156.561 19.27 19.27 0 01-.163.717v.014a1.006 1.006 0 00-.396-.156c-.298-.043-.574.12-.765.34-.12.143-.22.306-.311.469-.064.057-.12.12-.17.184l-.043.064a.608.608 0 00-.446.135c-.148.12-.248.284-.326.454a2.773 2.773 0 00-.19.625c-.086.398-.156.795-.227 1.192-.092.511-.177 1.016-.27 1.526a6.11 6.11 0 00-.204.88c-.022.135-.029.263-.05.398-.028 0-.05 0-.078-.007h-.007a.71.71 0 00-.524.213.985.985 0 00-.191.32s0-.008-.007-.015a1.965 1.965 0 00-.24-.34.737.737 0 00-.228-.164c-.014-.007-.035-.014-.056-.021a1.101 1.101 0 00-.163-.057c-.05-.007-.092-.007-.142-.007a.489.489 0 00-.141.021c-.347.078-.545.37-.609.689v.028s-.014 0-.014.007h-.021l-.007.007s-.015 0-.015.007c-.02.015-.028.029-.042.043a.753.753 0 00-.276.37c-.043.12-.057.248-.071.375a7.187 7.187 0 00-.035.554c-.015.376-.022.76.014 1.136.035.454.141.9.248 1.341.113.468.226.93.353 1.391v.021c.078.277.163.554.241.83.029.1.057.2.092.299.021.064.057.12.106.163a.322.322 0 00.184.1c.015 0 .029.014.043.02a.4.4 0 00.127-.02h.057c.014-.008.028-.022.043-.036a.054.054 0 00.028-.014c0 .07.021.149.042.22v.014c0 .021.022.043.029.064.014.042.035.092.056.135a.647.647 0 00.057.092c.021.035.05.064.07.092a.39.39 0 00.079.078c.028.029.063.05.099.079a.61.61 0 00.113.07c.057.029.106.057.17.071.007 0 .014.008.028.015 0 0 .05 0 .071.014.036.007.064.021.1.021h.035c.106.007.212 0 .318-.021h.029c.113-.029.212-.078.311-.142.021-.014.043-.036.057-.05a.651.651 0 00.134-.113c.021-.022.036-.05.05-.071.014-.022.035-.043.05-.071a.927.927 0 00.14-.306c0-.02.008-.035.015-.056.07.1.149.191.24.27.192.17.426.283.68.312a.528.528 0 00.05.085v.007c.127.22.27.447.361.688.035.086.064.164.1.249 0 .007.013.014.013.021.007.014.014.028.029.043 0 .007.007.021.014.028h.007s0 .014.007.021l.021.022.043.021c.014 0 .021.014.035.021.014 0 .021.014.035.014.022 0 .05 0 .071.008h.05c.014 0 .021 0 .035-.007.029 0 .057-.015.085-.029.014 0 .022-.014.036-.021a.532.532 0 00.063-.057s.007 0 .014-.014c0-.007.008-.022.015-.029a.21.21 0 00.035-.07.13.13 0 01.014-.05c0-.007.007-.022.007-.029 0-.056.007-.113.014-.177.022-.234.015-.476.022-.717V83.1a.811.811 0 00.375-.106c.064.127.127.248.198.362.092.148.213.283.354.383.298.213.687.284 1.027.135a.837.837 0 00.24-.15c.255-.212.347-.525.383-.844.028-.256.049-.504.078-.76a8.223 8.223 0 000-1.376c-.029-.348-.043-.696-.064-1.037.007 0 .014 0 .021.007.39.1.821-.007 1.098-.312.049-.05.085-.106.127-.17.099.156.234.284.389.362.1.383.192.766.291 1.142.063.22.12.44.191.66.035.114.071.228.127.334v.014s0 .014.007.014c.036.057.064.121.099.178.022.035.05.064.078.092.007 0 .022 0 .029.014.028.015.049.029.078.036 0 0 .014.007.021.007h.028c.036 0 .071 0 .106-.014h.036c.155-.078.17-.227.177-.376v-1.292c0-.39-.036-.78-.071-1.178l.042-.093c0-.007.015-.014.015-.02.014-.03.021-.065.035-.093a.838.838 0 00.028-.128c.007 0 .014 0 .029-.007.028-.014.035-.05.021-.078 0-.007-.014-.014-.028-.021.028-.242 0-.504-.008-.739-.007-.156-.028-.312-.035-.46v-.498c0-.525-.021-1.05-.057-1.575a37.56 37.56 0 00-.184-2.002 8.511 8.511 0 00-.049-.419c.049-.347.106-.695.156-1.043l.063.32c.106.46.22.922.347 1.383.121.44.262.873.418 1.306.127.341.269.682.446 1.001 0 .014.014.021.021.036.121.22.269.433.439.624v.007a.267.267 0 00.043.05h.007a.86.86 0 00.623.263.627.627 0 00.46-.249 8.12 8.12 0 001.019 1.562c.312.369.631.73.956 1.079.319.34.68.66 1.098.887.269.149.552.277.842.376h.007c.014 0 .021.007.036.014h.028c.552.199 1.175.12 1.727-.028a.178.178 0 00.121-.213.17.17 0 00-.064-.092 69.655 69.655 0 01-1.14-.867 7.052 7.052 0 01-.51-.518c-.24-.27-.467-.553-.693-.83a8.18 8.18 0 01-.687-1.015c-.262-.454-.51-.916-.751-1.384-.304-.582-.58-1.185-.856-1.782-.014-.02-.022-.05-.036-.07-.021-.32-.056-.646-.071-.966a95.02 95.02 0 01-.092-2.385c0-.198-.007-.397-.014-.596.156.419.319.83.496 1.242.17.39.368.767.623 1.108.163.22.34.432.524.631v.007s.007.014.014.022c.007.007.021.014.028.02.163.178.361.32.595.37.191.043.51.021.602-.199v-.007c.049-.128 0-.298-.05-.419a3.042 3.042 0 00-.184-.418v-.007a30.605 30.605 0 01-.304-.703c-.142-.348-.291-.689-.439-1.036-.177-.405-.347-.81-.517-1.214a19.27 19.27 0 01-.474-1.278 40.145 40.145 0 01-.425-1.341c-.128-.419-.248-.838-.368-1.256a8.516 8.516 0 01-.156-.625c.014-.007.035-.014.049-.028a.374.374 0 00.071-.078c.085-.157.099-.362.114-.533.028-.276.042-.56.049-.844.014-.355.035-.717.071-1.072.028-.248.078-.497.141-.731a9.54 9.54 0 01.241-.76c.071-.191.163-.383.255-.567.071.61.177 1.22.333 1.817a.131.131 0 00.163.092.138.138 0 00.099-.114 44.9 44.9 0 00.219-3.64c.036-.093.078-.185.114-.285.134-.369.261-.745.375-1.121.071-.227.127-.461.191-.689.113.355.226.71.347 1.065 0 .021.014.043.021.064l.064.17c.056.156.106.32.163.476.255.71.502 1.427.786 2.13.254.638.538 1.27.821 1.894.134.291.262.582.417.866.05.1.107.192.17.277.184.241.475.383.779.277a.616.616 0 00.375-.355.622.622 0 00.036-.376c-.028-.142-.106-.284-.163-.42-.12-.276-.248-.553-.368-.837-.113-.255-.22-.518-.333-.78a12.292 12.292 0 00-.276-1.221c-.135-.653-.312-1.292-.489-1.938a37.908 37.908 0 01-.601-2.491 61.67 61.67 0 01-.503-2.761c-.085-.56-.177-1.121-.269-1.682.212-.17.262-.504.283-.76v-.007c.071-.397.078-.816.092-1.213a41.02 41.02 0 01.085-1.605c.043-.532.085-1.064.135-1.596.056-.618.085-1.235.085-1.853 0-.695-.015-1.384-.036-2.08a24.286 24.286 0 00-.191-2.27v-.03a21.103 21.103 0 00-.418-2.2v-.028a17.76 17.76 0 00-.644-2.087c0-.014-.007-.02-.014-.035a16.86 16.86 0 00-.751-1.725s0-.014-.007-.021a8.521 8.521 0 00-.722-1.2c-.007-.014-.021-.028-.028-.042a7.54 7.54 0 00-.489-.575c-.177-.532-.354-1.065-.545-1.59a46.866 46.866 0 00-.722-1.91v-.013a16.541 16.541 0 00-.637-1.406s0-.014-.007-.02a9.784 9.784 0 00-.262-.462 6.625 6.625 0 00-.106-.511c-.078-.32-.17-.64-.269-.951-.078-.27-.177-.54-.269-.802a6.572 6.572 0 000-.526c0-.49-.071-.986-.156-1.469a16.027 16.027 0 00-.397-1.632 17.225 17.225 0 00-.665-1.839 13.198 13.198 0 00-1.006-1.909 31.21 31.21 0 00-.658-1.306 76.49 76.49 0 01-.871-1.69 70.842 70.842 0 00-.644-1.262s0-.015-.007-.022a17.442 17.442 0 00-.581-1.015 19.309 19.309 0 00-.743-1.093v-.007a41.458 41.458 0 01-1.565-2.342c-.22-.355-.446-.717-.68-1.065a26.723 26.723 0 00-.552-.787s-.007-.015-.014-.022a7.176 7.176 0 00-.545-.681 7.31 7.31 0 00-.588-.56 7.99 7.99 0 00-.906-.71c-.29-.192-.587-.384-.885-.554a22.77 22.77 0 00-1.076-.59c-.34-.177-.68-.354-1.027-.539a21.527 21.527 0 00-.906-.447 16.49 16.49 0 00-.97-.412 19.156 19.156 0 00-1.225-.418 61.894 61.894 0 00-1.224-.377A9.986 9.986 0 0088.06.17a5.874 5.874 0 00-.708-.106c-.468-.05-.942-.021-1.41-.007-.58.014-1.167.05-1.74.149-.482.078-.957.184-1.43.298-.504.12-1 .255-1.495.39-.248.071-.51.178-.68.384a.685.685 0 00-.134.589c.021.1.12.17.22.149a.181.181 0 00.148-.17c0-.05.021-.1.071-.114.12-.043.276 0 .397.021.537.114 1.097.17 1.65.17h.226c-.092.071-.191.135-.284.206-.41.305-.807.625-1.168.987-.134.128-.262.27-.368.419a.866.866 0 00-.17.355c-.035.191.064.34.248.404.212.078.432.135.658.142.029 0 .057-.021.057-.05 0-.028-.021-.056-.05-.056-.212 0-.417-.071-.608-.164-.085-.042-.107-.092-.05-.17a.88.88 0 01.205-.192c.128-.106.27-.198.411-.29.404-.27.828-.497 1.26-.718.368-.184.744-.376 1.126-.532.198-.078.396-.149.602-.22-.05.021-.092.043-.142.064a6.063 6.063 0 00-1.048.582c-.184.135-.41.32-.46.554 0 .014-.007.02-.014.035-.028.206.014.405.163.554.028.028.07.028.099 0 .028-.022.028-.064 0-.093-.092-.12-.085-.262-.021-.39a.35.35 0 01.134-.113c.1-.064.213-.107.319-.15.347-.127.7-.22 1.062-.305a9.678 9.678 0 011.005-.198c.248-.029.496-.064.743-.093.29-.035.581-.042.878-.05h.092c-.439.22-.913.391-1.373.554-.552.192-1.105.39-1.657.582-.212.071-.424.15-.637.22-.092.029-.177.078-.22.178l-.02.064v.063c0 .157.113.27.254.306-.347.184-.694.376-1.026.575-.284.17-.574.34-.85.518a4.765 4.765 0 00-.623.447.79.79 0 00-.269.49.552.552 0 00.255.532c.05.028.106.042.156.05a.593.593 0 00.247-.015h.008c.106-.02.212-.014.318-.014.22 0 .432.021.651.036.064 0 .12-.043.128-.107 0-.064-.043-.12-.106-.128a5.928 5.928 0 01-.61-.07 11.878 11.878 0 011.274-.532c.129-.05.263-.079.39-.122v.022c.022.064.05.113.093.163.113.114.276.15.424.17.043 0 .078.022.114.036.078.035.155.07.226.106-.085.029-.17.05-.255.085-.134.05-.262.107-.396.157a.5.5 0 00-.333.447.486.486 0 00.149.362.53.53 0 00.34.128c.141 0 .283.014.424.014.298.014.595 0 .892-.014l.687-.043c.63.83 1.24 1.675 1.841 2.527v.014c.12.213.248.419.39.617.092.128.19.256.283.384-.071 0-.142-.008-.213-.015-.021-.014-.042-.02-.064-.035a18.529 18.529 0 00-1.585-.703c-.404-.149-.829-.277-1.268-.32h-.035a7.592 7.592 0 00-.977-.027h-.014c-.248.014-.496.028-.744.078a1.1 1.1 0 00-.46.191.281.281 0 00-.106.071.63.63 0 00-.156.582.99.99 0 00.206.376c.05.071.113.135.17.206a.45.45 0 00-.163.163c-.015.029-.022.05-.036.079a.43.43 0 00.028.312.47.47 0 00.298.234l.545.15c.375.098.758.162 1.147.176.319.015.63.036.949.064.602.064 1.203.093 1.805.121.496.029.991.05 1.487.071.035.028.078.05.113.078.39.277.75.582 1.126.88.141.192.29.37.432.56a11.3 11.3 0 00-.453-.141 16.73 16.73 0 00-1.43-.34h-.022a7.61 7.61 0 00-1.267-.143h-.021c-.397 0-.8.022-1.197.071h-.007c-.22-.142-.439-.284-.666-.418-.014-.015-.035-.022-.049-.036a7.158 7.158 0 00-.835-.433c-.008 0-.015 0-.022-.007a2.899 2.899 0 00-.637-.163c-.042-.007-.078-.014-.12-.014a5.231 5.231 0 00-.942.042 8.002 8.002 0 00-.7.114c.013-.029.035-.057.035-.092 0-.1-.071-.192-.17-.206-.453-.093-.914-.192-1.38-.22h-.036c-.361-.043-.744.035-1.09.099-.333.064-.673.12-1.006.177-.05 0-.106 0-.156-.007a2.185 2.185 0 00-.948.192c-.361.064-.73.1-1.098.128-.141.007-.283.007-.425.014-.02-.021-.035-.043-.056-.064 0 0-.071-.05-.106-.078-.022-.014-.043-.021-.071-.035-.007 0-.014-.015-.028-.015h-.057c-.021 0-.043-.007-.064-.007h-.014c-.021 0-.035.007-.05.014a.114.114 0 00-.063.022h-.007a.37.37 0 00-.1.085c-.02.028-.035.064-.05.092v.007c-.098 0-.19.007-.29.014-.721.015-1.444 0-2.166-.02a3.482 3.482 0 00-.29-.1c.255-.277.503-.568.73-.88a40.439 40.439 0 001.783-.817c.135-.063.27-.134.404-.205.34 0 .672 0 1.005-.05.41-.05.857-.114 1.275-.043.113.022.226.043.34.078a.463.463 0 01.155.071.656.656 0 01.184.256.118.118 0 00.142.078.118.118 0 00.078-.142.852.852 0 00-.248-.362c-.149-.135-.333-.241-.503-.355-.29-.184-.616-.312-.941-.426.042-.12-.008-.248-.092-.34v-.008c-.015-.014-.022-.028-.036-.042-.233-.206-.609-.185-.899-.17a6.53 6.53 0 00-.73.092 19.261 19.261 0 00-1.26-.185c-.488-.057-.976-.113-1.465-.163.113-.149.22-.298.326-.447.616-.277 1.225-.56 1.826-.873.255-.135.524-.284.807-.362.12-.036.241-.036.347.035a.417.417 0 01.206.313s.028.05.056.05c.029 0 .05-.029.05-.057a1.073 1.073 0 00-.149-.462.923.923 0 00-.495-.383c-.361-.114-.786.007-1.133.12-.106.036-.206.072-.312.107-.248 0-.495.021-.722.12h-.014a2.74 2.74 0 00-.41.2 8.902 8.902 0 00-.27.17c-.262.092-.517.184-.779.277-.863.312-1.734.624-2.59.965-.192-.021-.376-.05-.567-.071h.007a5.04 5.04 0 01.772-.355c.481-.184.97-.355 1.451-.525.722-.249 1.437-.511 2.152-.767.227-.085.453-.17.673-.248.057.014.12.021.17.042.056.029.127 0 .156-.056a.105.105 0 000-.093c.141-.05.283-.099.424-.142.213-.063.44-.085.666-.099.028.014.05.028.078.036.212.113.439.213.665.298.029.007.057 0 .071-.029.007-.028 0-.056-.028-.07a1.568 1.568 0 01-.425-.242c.34.014.687.071.97.256.021.014.057.007.07-.015a.055.055 0 00-.013-.07c-.376-.235-.822-.348-1.254-.42a1 1 0 01-.07-.205 1.026 1.026 0 00-.29-.525.532.532 0 00-.107-.114 1.389 1.389 0 00-.7-.263c-.199-.02-.397.029-.581.086-.135.042-.262.099-.39.149v-.043a23.565 23.565 0 00-.042-.064l.255-.837v-.015a.826.826 0 00.056-.369.13.13 0 00.05-.014c.404-.085.807-.149 1.218-.184.375-.029.743-.057 1.118-.064.319-.007.645 0 .963.014.234.014.474.042.694.1.156.042.304.092.446.163a.46.46 0 01.184.141c.057.071.064.2.07.284.022.192.03.39.015.59-.014.212.028.425.127.617v.014c.128.256.362.398.638.462.028 0 .056-.015.063-.043 0-.028-.014-.057-.042-.064-.22-.05-.41-.192-.425-.426 0-.163.043-.326.092-.475.071-.213.128-.433.17-.653a1.493 1.493 0 000-.561c0-.05 0-.092-.021-.142a1.112 1.112 0 00-.41-.511 2.169 2.169 0 00-.645-.312 4.67 4.67 0 00-.885-.185 12.775 12.775 0 00-1.048-.085 10.595 10.595 0 00-2.563.227c-.248.05-.495.12-.743.185-.149-.057-.29-.121-.44-.178a5.605 5.605 0 00-1.019-.298c-.41-.085-.82-.177-1.232-.263a20.273 20.273 0 00-1.6-.255c-.127-.014-.262-.021-.389-.036.057-.014.106-.035.163-.05.403-.12.807-.226 1.218-.34.46-.128.92-.248 1.387-.348.262-.056.531-.12.8-.149.213-.021.432-.028.652-.035.17 0 .36-.022.53.021.114.036.213.1.277.199a.17.17 0 00.24.042.163.163 0 00.071-.17.789.789 0 00-.368-.54h-.007c-.014-.006-.028-.014-.05-.014-.198-.113-.438-.156-.658-.177a5.83 5.83 0 00-.7-.057c-.312 0-.631.071-.935.135-.482.1-.956.22-1.438.355l-1.225.34c-.615.178-1.224.377-1.84.561l-.475.15a11.931 11.931 0 00-3.101.554 13.17 13.17 0 00-1.904.766h-.007c-.007 0-.014 0-.021.007-.602.305-1.19.638-1.763 1.008-.602.39-1.169.83-1.685 1.327-.29.284-.567.582-.843.873-.347.262-.7.518-1.04.795-.44.355-.879.717-1.31 1.079-.46.39-.907.787-1.346 1.192-.431.405-.856.823-1.267 1.256l-.014.014c-.396.42-.793.83-1.197 1.25a74.475 74.475 0 00-1.6 1.731 15.126 15.126 0 00-1.302 1.633c-.284.426-.553.873-.715 1.355a.117.117 0 00.078.15c.042.014.092 0 .12-.029.842-.809 1.628-1.675 2.407-2.54a16.86 16.86 0 00-.474.865 39.189 39.189 0 00-.73 1.562 90.181 90.181 0 00-.722 1.731c-.035.078-.063.164-.092.242-.248.475-.502.958-.743 1.44-.064.135-.12.27-.184.405-.248.426-.489.852-.722 1.285 0 0-.029.05-.036.07-.297.569-.566 1.15-.8 1.747a48.644 48.644 0 00-1.026 2.867c-.184.554-.383 1.186-.248 1.775.042.191.099.383.191.567a.955.955 0 00.127.2c-.042.134-.092.262-.127.397-.042.142-.085.29-.127.44-.022.021-.05.042-.071.064a9.123 9.123 0 00-.538.638c-.163.213-.312.433-.46.653-.015.014-.022.036-.036.05-.17.263-.319.532-.467.81-.149.283-.297.574-.432.865 0 .007-.007.014-.014.029a9.95 9.95 0 00-.425 1.036c0 .014-.007.021-.014.035-.149.419-.29.838-.425 1.257-.156.482-.29.972-.404 1.462a43.28 43.28 0 00-.346 1.604c-.05.255-.093.51-.135.766-.07.17-.149.34-.22.511a25.97 25.97 0 00-.814 2.37c-.198.69-.389 1.378-.573 2.066v.021c-.22.824-.396 1.654-.573 2.485-.178.858-.333 1.731-.39 2.612-.021.29-.028.589-.021.88 0 .241.021.49.085.724.007.028.021.064.028.092-.05.362-.099.717-.134 1.079-.071.71-.114 1.433-.057 2.143.035.483.106.965.24 1.427v.035c.015.057.036.114.057.17-.042.27-.07.547-.113.817-.057.376-.12.752-.205 1.129a10.5 10.5 0 00-.156 1.05c-.021.199-.035.404-.057.603-.113.32-.226.639-.354.958-.184.455-.332.916-.481 1.384-.205.66-.39 1.32-.56 1.988a.234.234 0 00.156.277c.085.02.177 0 .227-.071.446-.533.878-1.086 1.274-1.654.29-.426.567-.866.765-1.349.149-.369.283-.745.418-1.114-.015.199-.022.397-.036.603-.191.32-.375.64-.538.973a3.1 3.1 0 00-.29.823c-.021.12-.036.241-.021.362.007.1.035.22.113.298a.188.188 0 00.099.05c.106.021.22-.029.312-.078.084-.05.155-.121.226-.192a28.631 28.631 0 000 1.746c.028.724.092 1.448.177 2.165.085.688.191 1.377.326 2.058.12.618.276 1.22.488 1.817v.007c0 .022.014.043.021.064a15.455 15.455 0 00.673 1.59c-.17.454-.347.908-.53 1.363-.227.54-.461 1.079-.702 1.61-.22.47-.446.938-.7 1.385-.234.419-.482.837-.73 1.25-.24.397-.474.787-.708 1.184-.191.32-.382.632-.588.944a11.56 11.56 0 01-.51.703 4.027 4.027 0 00-.537.866l-.014.014c-.15.263-.284.56-.262.873 0 .085.02.163.056.241.135.362.496.597.871.653.212.036.425 0 .63-.063.021 0 .043 0 .064-.008.056-.014.106-.042.156-.063.382-.15.729-.398 1.026-.689.255-.248.503-.51.743-.773.305-.327.581-.675.85-1.03.305-.404.58-.823.843-1.256.262-.433.502-.887.729-1.341v-.007a.776.776 0 01.042-.079c.248-.51.482-1.029.701-1.554 0-.014.014-.028.022-.043.162-.376.304-.759.438-1.142.177.227.347.461.538.681-.028.078-.056.163-.092.248-.162.405-.332.803-.502 1.207-.064.15-.128.298-.17.454-.035.121-.078.263-.05.39.014.065.05.121.106.164.192.149.454.035.616-.1.156-.127.27-.305.362-.482.17-.327.325-.66.481-.994.205.242.404.49.609.731a2.585 2.585 0 01.53 1.03c.079.376.086.766.086 1.142 0 .064.05.12.12.12a.11.11 0 00.092-.042c.298-.355.56-.795.58-1.27v-.043a5.449 5.449 0 00-.17-1.554 4.42 4.42 0 00-.452-1.065 1.248 1.248 0 00-.1-.163c.043-.135.086-.27.114-.405.07-.312.142-.631.205-.944.078-.39.149-.787.198-1.185.057-.433.093-.873.093-1.313v-.092c.049.156.091.312.141.468.156.497.474.944.906 1.235a.136.136 0 00.192-.035.144.144 0 00.02-.078 4.69 4.69 0 00-.226-1.399c-.056-.17-.092-.354-.134-.532a.749.749 0 00.255.064c.035 0 .063-.007.092-.007.02.44.042.873.063 1.313 0 .064.007.135.014.199v.525c0 .376.022.76.064 1.135.007.086.021.164.035.249.015.241.022.49.043.731.05.859.092 1.718.184 2.57.028.29.057.588.12.88 0 .014 0 .028.008.035.014.07.035.142.056.206.114.333.39.596.75.638.078.008.156.008.234 0a1.25 1.25 0 00.234-.063.924.924 0 00.297-.227l.014-.015a.79.79 0 00.156-.27c0-.007.014-.014.014-.028.015-.035.022-.078.029-.113.014-.085.035-.17.05-.256 0-.028 0-.057.013-.085.008 0 .014 0 .022.007.02.007.042.021.063.029.022 0 .043.014.064.02.007 0 .014 0 .021.008.043.007.085 0 .128 0h.19c.065-.014.114-.043.17-.064.03-.014.058-.021.079-.035.014-.008.035-.008.05-.022 0 0 .006-.014.013-.014.043-.028.071-.064.107-.1.028-.028.056-.049.078-.077.014-.022.035-.043.05-.064.02-.029.027-.064.049-.1.02-.042.042-.085.056-.127 0-.022.021-.036.021-.057 0-.014.008-.036.015-.05V78.6c0-.021.014-.043.014-.064 0-.163 0-.326.007-.497v-.12a.787.787 0 00.283.12h.184c.064 0 .12.014.184 0 0 0 .029-.014.05-.021.028-.007.05-.021.078-.035.063-.022.12-.036.177-.071.014-.008.028-.029.042-.036.021-.014.043-.043.064-.064a.757.757 0 00.156-.177.185.185 0 00.035-.043c.021-.042.043-.085.064-.135a2.7 2.7 0 00.078-.22c.042-.12.07-.248.099-.376.064.327.127.646.212.965.07.284.142.597.29.852.114.192.29.34.51.398a.803.803 0 00.871-.334c.078-.12.113-.255.142-.39.007-.036.014-.078.02-.121.036-.34.05-.681.072-1.03.028-.574.078-1.149.134-1.724 0-.057.007-.114.014-.177a.958.958 0 00.199.07c.042.008.077 0 .12.008l.021.199c.036.326.057.667.128.986.035.185.113.355.233.497a.953.953 0 00.616.333c.064.008.135.015.198.008a.93.93 0 00.305-.086.343.343 0 01.05-.02.96.96 0 00.36-.334c.057-.086.1-.178.142-.277.064-.157.106-.32.149-.483.007.27.021.54.021.81.014.808 0 1.617 0 2.427 0 .447-.007.894-.021 1.334 0 .227-.007.454-.029.681-.042.44-.134.88-.212 1.313-.191 1.008-.276 2.044-.368 3.067-.085.979-.163 1.973-.333 2.945a24.31 24.31 0 01-.325 1.59 9.63 9.63 0 01-.241.887v.028c-.014-.02-.021-.042-.036-.063 0-.007-.007-.015-.014-.022a3.458 3.458 0 00-.453-.667l.07.021c.05.015.1-.007.121-.056.014-.043 0-.093-.05-.114-.247-.114-.495-.22-.743-.334h-.007a.149.149 0 00-.177.05.145.145 0 00-.014.135c.05.114.092.227.142.348.134.326.283.646.431.972.22.476.425.958.617 1.448.19.483.382.958.601 1.427.142.298.283.596.446.887.156.27.34.525.524.78.27.363.574.703.892 1.023.468.468.963.901 1.473 1.32.439.369.878.731 1.303 1.107.276.241.566.469.863.682.397.276.829.503 1.26.723.525.263 1.006.59 1.466.944.425.334.857.661 1.31.952.382.241.786.454 1.19.645.346.164.693.334 1.026.519.233.134.46.283.672.447.262.206.531.39.808.567.304.185.623.348.948.483.453.178.906.341 1.367.504.488.17.977.348 1.458.532.418.164.843.306 1.282.419.446.121.899.213 1.359.291.404.071.807.128 1.218.156.46.036.92.036 1.373.036.432 0 .871 0 1.296-.057.326-.05.651-.135.963-.234.46-.142.913-.32 1.36-.504a52.21 52.21 0 001.436-.618c.44-.198.871-.404 1.296-.631.488-.256.963-.547 1.423-.859a46.55 46.55 0 011.38-.894c.468-.291.935-.59 1.395-.888l1.438-.929a9.199 9.199 0 001.316-1.008c.411-.384.8-.795 1.183-1.214.403-.447.814-.88 1.232-1.306.46-.461.948-.901 1.444-1.327.184-.156.361-.313.545-.469.156.164.312.327.474.483l1.254 1.192c.34.327.693.646 1.054.951.305.263.623.526.963.739.227.142.453.276.694.397.227.121.46.227.694.327.297.127.616.205.942.255h.028c-.028.057-.064.107-.092.163-.29.582-.581 1.164-.871 1.753a26.758 26.758 0 01-1.7 3.052 30.87 30.87 0 01-.92 1.384 11.431 11.431 0 01-1.705 1.86c-.284.241-.567.483-.864.696-.489.362-1.006.674-1.523 1a61.57 61.57 0 01-1.869 1.15c-.56.327-1.14.625-1.727.909-.524.255-1.055.511-1.593.745-.468.199-.942.376-1.416.539-.468.164-.935.32-1.416.455-.531.142-1.07.255-1.614.369-.758.156-1.516.298-2.28.433-.588.106-1.183.205-1.77.305-.432.071-.864.12-1.296.163-.354.036-.708.05-1.062.057-.602.014-1.21.014-1.812.014-.574 0-1.14 0-1.714-.021-.219 0-.467 0-.68-.036a4.183 4.183 0 01-.714-.206 9.662 9.662 0 00-.97-.298 6.688 6.688 0 00-.991-.17c-.517-.05-1.041-.057-1.558-.064-.439 0-.878-.007-1.317-.014a1.469 1.469 0 00-.283-.27c-.375-.255-.843-.333-1.289-.333-.431 0-.863.014-1.295.049a16.53 16.53 0 00-.822-.319c-.467-.163-.941-.284-1.422-.412-.44-.113-.886-.227-1.317-.39-.255-.1-.503-.22-.737-.362a5.923 5.923 0 01-.814-.639c-.333-.305-.757-.546-1.218-.546-.212 0-.431.056-.601.177a.72.72 0 00-.248.312c-.163-.106-.333-.206-.496-.305h-.007c-.375-.227-.75-.454-1.111-.703a5.064 5.064 0 01-.531-.425 9.787 9.787 0 01-.687-.746 11.36 11.36 0 00-.85-.901c-.262-.248-.517-.504-.772-.752a6.77 6.77 0 01-.722-.838 30.26 30.26 0 01-.686-1.001 15.916 15.916 0 00-1.07-1.398c-.332-.39-.665-.802-.927-1.242-.368-.632-.68-1.299-.998-1.952a47.35 47.35 0 01-1.147-2.52 76.065 76.065 0 01-.928-2.398c-.24-.646-.481-1.306-.8-1.924v-.014c-.078-.15-.155-.298-.212-.454-.021-.057-.057-.135-.057-.2 0-.049.007-.098.043-.134.191-.199.403-.376.609-.56.318-.292.637-.576.963-.852.261-.228.53-.44.82-.625.27-.177.56-.326.85-.461.326-.15.645-.32.95-.504.353-.213.679-.462.997-.724.397-.32.772-.667 1.133-1.03.312-.319.63-.638.92-.979.27-.312.517-.646.751-.98.248-.354.482-.723.68-1.114.078-.156.184-.326.347-.411a.483.483 0 01.396 0c.057.021.127 0 .149-.064.021-.05 0-.107-.043-.142-.19-.128-.417-.185-.637-.1-.24.093-.41.313-.53.533-.2.369-.433.717-.688 1.05-.24.32-.488.64-.75.937-.29.327-.602.639-.913.944-.354.348-.723.681-1.112.987a8.944 8.944 0 01-.956.674 8.51 8.51 0 01-.913.468 7.08 7.08 0 00-.92.483 8.098 8.098 0 00-.878.66 28.22 28.22 0 00-.97.866c-.206.192-.425.376-.616.59l-.014.013a.67.67 0 00-.107.2 2.047 2.047 0 00-.573-.406h-.014c-.262-.127-.588-.134-.871-.127-.432 0-.857.1-1.26.248-.666.241-1.324.497-1.976.752-.63.242-1.267.483-1.869.788a9.062 9.062 0 00-.92.526c-.234.156-.467.326-.694.496a.745.745 0 01-.432.022 4.105 4.105 0 01-.453-.256c-.311-.198-.694-.255-1.048-.277-.304-.014-.63-.028-.927.029-.34.064-.666.213-.984.355a28.26 28.26 0 00-1.685.809 46.37 46.37 0 01-1.99.937c-.297.127-.595.241-.892.362a.677.677 0 00-.29-.156 1.664 1.664 0 00-.793 0c-.234.056-.46.163-.68.262-.417.185-.835.383-1.246.575l-2.336 1.107c.021-.014.035-.028.056-.042a2.73 2.73 0 00.333-.306c.085-.099.12-.234.057-.354-.064-.114-.184-.17-.304-.192-.29-.05-.56.156-.751.355-.12.128-.262.234-.404.348-.233.184-.481.362-.729.539-.51.369-1.012.745-1.508 1.136-.163.071-.326.149-.495.22-.411.177-.822.362-1.232.546.07.142.12.291.184.433-.092.071-.177.142-.27.206-.65.504-1.323.987-1.996 1.462-.056.043-.12.085-.177.128l-.106.085-.382.256a5.518 5.518 0 00-1.027.163c-.41.113-.814.262-1.182.475-.46.263-.864.632-1.24 1.001a15.618 15.618 0 00-1.514 1.753l-.17.234c-.22.178-.432.355-.644.54-.468.404-.935.816-1.367 1.256-.53.547-1.012 1.143-1.5 1.732-.532.646-1.063 1.299-1.53 1.994v.007a25.006 25.006 0 00-1.904 3.407c-.29.618-.567 1.242-.829 1.874a38.748 38.748 0 00-.644 1.718c-.312.901-.602 1.81-.885 2.718-.29.923-.588 1.853-.871 2.775a14.57 14.57 0 00-.404 1.548v.014c-.07.362-.12.745-.063 1.107v.021c0 .007 0 .014.007.022.05.255.226.482.488.525a.589.589 0 00.51-.163c.184-.171.304-.412.425-.625.028-.05.007-.114-.043-.135-.02-.014-.056-.014-.078-.007-.077.028-.155.043-.233.064.035-.178.078-.355.127-.532.142-.49.298-.966.46-1.448.312-.923.602-1.846.893-2.776.283-.894.566-1.795.877-2.675.064-.171.135-.341.199-.518.269-.483.53-.973.793-1.455a121.006 121.006 0 011.911-3.386c.524-.887 1.062-1.774 1.607-2.647.326-.526.673-1.037 1.006-1.548.198-.234.403-.468.616-.681.41-.419.85-.816 1.288-1.207.567-.511 1.147-1 1.756-1.455a47.288 47.288 0 011.947-1.412 83.515 83.515 0 002.265-1.625s.008 0 .015-.008a47.364 47.364 0 002.23-1.746l.014-.014a163.148 163.148 0 001.94-1.625c.736-.334 1.473-.667 2.195-1.022h.007a96.38 96.38 0 002.93-1.52c.142-.077.284-.148.433-.226.255.191.502.397.722.631.276-.127.56-.248.835-.369.142-.064.284-.135.425-.198a8.353 8.353 0 01-.56 1.575c-.013.036 0 .078.036.093.036.014.071 0 .092-.029a8.662 8.662 0 00.644-1.597c.015-.05.029-.106.05-.156.425-.191.85-.383 1.267-.589 0 0 .015 0 .022-.007a184.36 184.36 0 001.982-1.015c.538-.284 1.076-.56 1.628-.802.262-.114.531-.248.814-.298.248-.05.51-.043.765-.043a5 5 0 01.864.057c.198.035.403.057.609.028h.007a12.04 12.04 0 01-.786.554 4.454 4.454 0 00-.658.497c-.362.312-.68.688-.999 1.05-.177.199-.347.398-.517.61-.099.121-.198.25-.269.384a.418.418 0 00-.042.185c-.014.248.142.489.418.503a.58.58 0 00.318-.099c.184-.106.347-.248.51-.383.05-.043.057-.114.014-.156a.1.1 0 00-.085-.043h-.042c.12-.142.24-.277.36-.419.291-.333.588-.674.914-.972.177-.156.361-.305.552-.447.312-.22.61-.462.914-.696l.007-.007a11.1 11.1 0 01.99-.724c.277-.177.56-.34.85-.497.581-.305 1.183-.56 1.785-.83.637-.277 1.274-.56 1.925-.795.34-.12.701-.206 1.062-.22.241 0 .489-.014.73.007.247.043.481.128.7.241.015.1.043.2.078.299.064.17.135.34.213.503.276.618.481 1.27.694 1.917.269.823.545 1.646.856 2.456.34.873.715 1.731 1.105 2.583.311.681.616 1.377.99 2.023.277.483.624.93.978 1.363.347.425.68.873.949 1.355.205.369.431.738.672 1.086.24.348.524.66.822.958l.785.767c.276.263.524.561.765.859.234.284.467.582.736.837.198.192.418.362.645.518.375.263.764.511 1.154.76.332.213.686.419.977.688.255.235.502.483.743.724.248.249.496.511.779.717.198.149.425.263.651.362.27.114.56.199.85.256.502.099 1.026.113 1.529.134.333.015.666.022 1.005.022.092.028.177.049.27.078.424.142.835.319 1.252.49.248.106.503.205.751.298.191.071.39.135.595.142h.007c.36.014.729 0 1.09-.007.623-.015 1.246-.022 1.87-.029.46 0 .934-.014 1.394.029.248.028.495.063.736.127.276.071.545.171.814.27.326.121.652.234.999.298.304.057.63.05.941.05.58 0 1.161 0 1.735-.007h.014a81.998 81.998 0 001.855-.043c.397-.014.786-.028 1.182-.071.46-.05.92-.106 1.38-.177.603-.093 1.197-.206 1.8-.32h.006c.772-.142 1.544-.298 2.308-.454.574-.121 1.14-.241 1.707-.397.51-.142 1.012-.313 1.515-.497h.007a23.045 23.045 0 001.5-.596h.015c.552-.249 1.09-.519 1.635-.788a34.531 34.531 0 001.82-.959c.651-.376 1.281-.78 1.911-1.185.531-.348 1.077-.688 1.58-1.072 0 0 .006 0 .013-.007.319-.248.623-.511.928-.78l.014-.015a12.46 12.46 0 001.005-1.036l.014-.014c.298-.348.581-.71.843-1.086 0 0 0-.007.007-.014.333-.483.63-.987.921-1.498a48.16 48.16 0 00.906-1.639v-.014c.262-.512.51-1.03.736-1.548 0 0 0-.014.007-.014.262-.582.538-1.164.821-1.732.036-.064.071-.135.1-.199.155.121.311.235.474.341.297.192.609.348.927.49.461.206.928.39 1.388.575.467.184.942.376 1.388.61.417.22.821.462 1.217.717.404.256.815.504 1.239.717.347.17.715.312 1.091.419.502.142 1.019.248 1.536.34a10.96 10.96 0 011.487.362c.382.128.764.27 1.147.426.46.185.941.327 1.423.44.531.128 1.069.234 1.607.313.418.063.828.134 1.239.22.248.049.496.12.729.213.305.12.588.283.864.454.326.191.658.39 1.019.511.199.071.411.113.616.156.333.071.666.135 1.006.192.63.113 1.26.234 1.876.404.573.163 1.133.355 1.692.561.517.184 1.027.376 1.536.589.376.156.758.284 1.147.369.446.099.899.156 1.353.213.438.05.877.106 1.309.184l.312.064c.255.107.51.22.75.362.163.093.312.206.461.32.276.206.538.418.807.639a43.72 43.72 0 011.557 1.327c.34.305.673.631.97.979.213.249.404.511.595.774.354.49.694.979 1.041 1.476.545.795 1.083 1.604 1.67 2.364.411.532.864 1.036 1.31 1.54a27.92 27.92 0 012.06 2.555c.248.348.461.71.68 1.072.312.518.581 1.057.821 1.611.177.397.362.809.482 1.235.014.064.028.121.049.184.022.121.05.249.071.37 0 .014.014.021.014.035.007.036.007.071.022.106.007.022.028.036.035.057.021.05.05.093.078.135a.462.462 0 00.092.107.495.495 0 00.12.085c.043.021.085.049.135.064a.83.83 0 00.141.035c.05.007.1.014.156.014.021 0 .043.007.071 0 .028 0 .057-.021.085-.028.028 0 .057 0 .085-.014.021-.007.035-.029.064-.036.049-.021.085-.049.127-.078.043-.028.078-.064.113-.099.036-.036.057-.071.085-.114a.72.72 0 00.071-.135 1.043 1.043 0 00.05-.291c0-.028.007-.049 0-.078v-.042l-.107-.135zM95.529 80.679a15.58 15.58 0 00-.028.575l-.107-.746c-.042-.276-.077-.56-.113-.837.078.05.163.085.248.113 0 .057.014.114.014.17v.718l-.014.007zm4.255-8.624c-.021-.057-.042-.106-.057-.163v-.213a.08.08 0 01.036.007c.007.1.021.192.028.291v.07l-.007.008zm.127-1.767s.015-.036 0-.05c0 0-.014 0-.014-.014 0-.036-.014-.071-.014-.107 0-.014.014-.028.014-.035.022.07.043.135.057.206h-.042zm2.776-2.733c-.05.206-.078.412-.113.618a.95.95 0 00-.262.149c-.022.014-.036.035-.057.056a4.584 4.584 0 00-.205-.546 1.67 1.67 0 00.488-.241c.064-.05.121-.114.184-.17a.728.728 0 00-.035.134zm.439-.433h-.092c.035-.042.071-.078.106-.12 0 .035 0 .07-.007.113l-.007.007zm1.352-.333v-.149c.007-.071.021-.135.035-.2h.029l-.064.349zm.899-.817s-.007-.014-.014-.02c0 0 0-.008-.007-.015a.446.446 0 00-.177-.185.423.423 0 00-.248-.028c-.021 0-.035.021-.056.035a.264.264 0 00-.064.036s-.014.007-.021.014a.317.317 0 00-.071.071c-.021-.028-.05-.057-.071-.085.042-.156.092-.305.17-.447.028-.05.085-.17.156-.163a.22.22 0 01.17.07c.085.107.141.256.191.384.028.078.049.163.071.248v.156c0-.028 0-.05-.015-.078l-.014.007zm.694 4.699c-.092-.468-.184-.93-.29-1.398a10.343 10.343 0 01-.198-1.129c-.043-.312-.071-.617-.1-.93v-.035c.071.461.142.923.22 1.384.106.617.219 1.242.333 1.86.056.305.12.61.177.915-.05-.22-.107-.447-.149-.667h.007zm2.4-1.235c-.035.37-.049.745-.064 1.114a82.402 82.402 0 00-.042 1.86c-.071-.156-.142-.32-.212-.476a28.628 28.628 0 01-.751-1.888 25.224 25.224 0 01-.552-1.746 20.446 20.446 0 01-.361-1.455 7.705 7.705 0 01-.149-.98c-.007-.148-.014-.29 0-.44.071.03.142.058.205.093.177.1.333.234.468.39.191.22.361.462.517.71.12.199.261.433.276.675 0 .063.056.113.12.113s.113-.057.113-.12c-.014-.277-.099-.554-.177-.81a3.413 3.413 0 00-.41-.894 2.597 2.597 0 00-.546-.603 1.92 1.92 0 00-.587-.327.61.61 0 00-.496.05.7.7 0 00-.304.404c-.029.086-.043.178-.064.27-.028-.085-.057-.177-.106-.255a.52.52 0 00-.34-.242.419.419 0 00-.262.036c.099-.135.191-.27.29-.405.276-.362.546-.73.815-1.1.311-.426.608-.859.906-1.299.269-.404.538-.816.793-1.235 0 0 0-.007.007-.014.12-.199.219-.404.325-.603 0 .021-.014.035-.014.057a7.686 7.686 0 00-.163.965 12.09 12.09 0 00-.07.88v.042c-.022.398 0 .795.021 1.186v.014c.014.284.064.582.184.852-.007.106-.021.213-.028.32a7.76 7.76 0 00.049 1.142c.043.454.114.901.198 1.348.093.49.199.973.333 1.455.043.157.099.306.142.455-.036.156-.057.32-.071.475l.007-.014zm.68-23.905v-.014c0-.007-.014-.014-.021-.021a2.424 2.424 0 00-.723-.462s-.014 0-.021-.007a1.604 1.604 0 00-.361-.1c.05-.19.106-.39.156-.581.149-.582.276-1.178.403-1.767.092-.433.177-.866.248-1.306.021.085.057.163.078.241a17.115 17.115 0 01.552 2.74c.05.447.078.901.099 1.355 0 .157 0 .313.008.469a2.703 2.703 0 00-.404-.54l-.014-.007zm-.779-10.249c.028.064.064.12.092.185.135.326.255.667.354 1 .12.405.227.817.326 1.229.078.34.134.68.198 1.022a.24.24 0 00-.028-.064 22.207 22.207 0 00-.588-1.32v-.015l-.234-.49a19.41 19.41 0 00-.063-1.1c-.015-.149-.036-.29-.057-.44v-.007zm.156-3.328c.17.198.325.418.467.638a106.86 106.86 0 01.595 2.385v-.014a8.21 8.21 0 00-.46-.83v-.008c0-.014-.015-.02-.022-.028a3.735 3.735 0 00-.446-.56s0-.015-.007-.015c-.014-.014-.028-.028-.042-.05a3.122 3.122 0 00-.291-.255 19.477 19.477 0 00-.028-.639c-.021-.312-.049-.617-.071-.93.107.1.213.199.305.305zm-.262-1.945c.042.135.071.27.113.397a2.219 2.219 0 00-.297-.064c-.022-.191-.043-.39-.071-.582-.043-.277-.078-.56-.113-.844.12.362.247.724.361 1.086l.007.007zM86.58 11.122c-.333.014-.665.028-.998.036-.404.014-.8.092-1.182.22-.135.042-.263.092-.397.134 0 0 0-.007-.007-.014a.696.696 0 01-.092-.227c0-.092.007-.185.021-.27a.202.202 0 01.064-.12c.063-.071.177-.1.262-.135.19-.064.403-.071.609-.071.297 0 .601.042.892.1.347.063.687.198 1.005.34h-.184l.007.007zm8.29 2.072c.114.022.22.043.326.071l1.048 1.711c-.319-.405-.644-.81-.977-1.207-.17-.205-.361-.397-.538-.596.043 0 .092.007.135.014l.007.008zm-.53-4.634s.014 0 .02.007c.22.106.433.227.624.376.134.1.255.22.347.355a.704.704 0 01.099.32 25.551 25.551 0 00-1.09-1.058zm8.757 26.346c.085.66.177 1.32.277 1.98-.092-.127-.184-.255-.291-.369a1.289 1.289 0 00-.403-.298c-.029-.532-.057-1.057-.092-1.59a17.23 17.23 0 01-.043-1.064c0-.157-.014-.327.021-.476 0-.014 0-.021.008-.035v-.008c.113-.17.205-.361.262-.567.077.809.155 1.618.254 2.427h.007zm-.601-6.36c.035.583.078 1.157.127 1.74a5.984 5.984 0 00-.184-.37 11.644 11.644 0 01-.396-.802 21.918 21.918 0 01-.262-.617c.134.192.262.376.389.568.057.078.17.1.248.042a.169.169 0 00.064-.198 75.82 75.82 0 00-.843-2.477c-.191-.526-.389-1.05-.651-1.548-.128-.248-.248-.497-.376-.738.008-.184.022-.376.029-.56.021-.568-.106-1.13-.298-1.661.17.284.347.56.531.83.192.284.383.568.546.866.113.199.212.405.29.625.064.198.134.39.212.589.092.22.241.411.46.518 0 .198 0 .397.015.596.021.873.049 1.753.099 2.626v-.028zM89.9 2.91a12.09 12.09 0 01.447.256c-.057-.008-.114-.022-.163-.029-.12-.014-.241-.014-.368-.028a.497.497 0 00.084-.199zm-.962-.468h-.007.007zm-2.145 3.804c-.142-.092-.284-.185-.432-.263a6.03 6.03 0 00-.75-.355c.077-.02.148-.035.226-.056.39-.086.778-.164 1.168-.227.39-.064.779-.114 1.168-.164.354-.042.708-.078 1.062-.113.326-.036.644-.071.963-.114a1.75 1.75 0 01.51-.007c.17.028.332.057.495.1.106.028.22.063.319.113a.732.732 0 01.177.106c.148.15.297.291.453.426.057.05.149.05.205-.014.206-.255.333-.596.262-.923l.17.128c.347.249.701.483 1.076.689l.007.007c.014.007.029.014.036.021l.19.107.065.141c.17.362.368.71.58 1.044.276.454.58.901.885 1.341.382.554.765 1.115 1.14 1.675.446.66.892 1.32 1.352 1.966.475.667.949 1.342 1.416 2.016.482.688.97 1.363 1.48 2.03.12.156.227.327.347.483.212.418.425.837.616 1.27.099.22.191.433.276.66.042.114.071.227.106.348a23.138 23.138 0 00-.488-.923 41.908 41.908 0 00-1.331-2.186 23.875 23.875 0 00-1.72-2.314 36.133 36.133 0 00-1.792-1.966c-.319-.32-.637-.646-.956-.965a1.59 1.59 0 00.085-.632c-.014-.284-.07-.567-.22-.809a4.608 4.608 0 00-.417-.56 5.068 5.068 0 00-.666-.625 4.426 4.426 0 00-1.104-.61c-.425-.17-.864-.313-1.31-.433a12.546 12.546 0 00-1.451-.306c-.73-.106-1.466-.12-2.202-.127-.658 0-1.324-.015-1.975.028l-.021-.007zm3.752 3.052c-.567-.504-1.133-1-1.713-1.484-.093-.078-.192-.156-.284-.234h.227c.36 0 .722-.007 1.083 0 .007.093.028.185.042.27.036.156.093.305.185.433v.014c.177.27.375.518.573.774a.12.12 0 00.163.021c.05-.035.057-.114.021-.163a4.306 4.306 0 01-.333-.469c-.056-.092-.12-.191-.155-.298a.773.773 0 01-.022-.184h.015c.113.042.22.1.325.163.17.1.333.22.489.348.226.184.439.383.644.596.311.312.616.632.92.951.376.39.723.81 1.055 1.242.22.291.432.582.638.887-.085-.028-.17-.063-.262-.092a7.886 7.886 0 00-.8-.227c-.22-.213-.432-.433-.659-.632-.722-.639-1.444-1.27-2.16-1.909l.008-.007zm.934 7.076c.425.078.843.17 1.254.305.24.079.474.17.707.256l1.041 1.512c.531.766 1.055 1.533 1.572 2.306-.276-.319-.552-.631-.821-.95a30.78 30.78 0 00-1.09-1.257c-.22-.234-.454-.454-.687-.674a1.088 1.088 0 00-.092-.085 14.64 14.64 0 00-.737-.604l-.007-.007c-.014-.014-.035-.028-.05-.042a12.362 12.362 0 00-.8-.554c-.127-.078-.268-.149-.396-.227.036 0 .071.014.106.021zm-3.285-1.852c.39.028.78.106 1.161.206.46.113.907.262 1.353.433.163.063.325.142.488.213a17.497 17.497 0 00-1.069-.256 44.074 44.074 0 00-1.635-.291.413.413 0 01-.092-.014c-.163-.1-.333-.199-.489-.306.1 0 .198.008.297.015h-.014zm-6.605-1.27c.148-.043.304-.058.46-.072.156-.014.311-.014.467-.014-.092.028-.184.05-.276.078a5.68 5.68 0 00-.665.234l-.276-.085c.099-.05.19-.092.29-.135v-.007zm-1.926.95c.382-.156.743-.347 1.105-.54.028-.013.049-.028.077-.042-.007.029-.014.057-.014.093 0 .028.014.042.021.07-.389.164-.771.334-1.147.519-.028.014-.056.035-.084.05-.05-.029-.107-.05-.163-.072.07-.028.141-.042.212-.07l-.007-.008zm-5.197-7.686c.085-.015.184-.043.27-.036.049 0 .099.021.155.029-.106.014-.22.028-.318.05a18.8 18.8 0 00-.616.12.59.59 0 00-.057-.021 5.63 5.63 0 01.573-.142h-.007zm-1.798-1.718c.078.014.156.028.234.05.12.042.248.078.368.106.007.064.014.128.014.192 0 .057 0 .12-.007.177l-.375-.17a6.423 6.423 0 00-.517-.192.892.892 0 00-.198-.035c.163-.043.325-.093.481-.135v.007zm-.963 1.285c.227-.142.453-.306.701-.405.149-.057.297-.106.453-.142a.636.636 0 01.397.043l-.043.34c0 .036 0 .071.007.107a21.4 21.4 0 00-.665.312 10.896 10.896 0 00-.673-.085c-.134-.014-.262-.021-.396-.035l.212-.128.007-.007zM56.802 24.82s-.014.008-.014.015c-.39.312-.779.631-1.161.95 0-.006.007-.014.014-.02.418-.767.814-1.54 1.203-2.322-.099.27-.127.575-.014.845.05.128.142.248.255.334-.092.07-.184.134-.276.206l-.007-.008zm1.572-1.128c.148-.156.297-.305.439-.462l.02-.02c.03.042.058.084.086.127-.184.114-.368.241-.552.362l.007-.007zm1.451-3.925c-.106.149-.205.305-.304.461-.227.227-.453.44-.673.674-.404.42-.8.845-1.182 1.278a6.43 6.43 0 00-.503.639c.368-.752.744-1.505 1.119-2.25 0-.007.014-.021.014-.028.12-.114.226-.242.347-.355.41-.398.856-.76 1.317-1.1.269-.206.552-.39.828-.59-.333.42-.658.838-.963 1.278v-.007zm4.538.66a34.128 34.128 0 01-3.023 1.583l-.212.106c.198-.362.41-.71.637-1.05.276-.419.566-.838.864-1.242-.156.234-.305.567-.177.851.021.05.064.078.099.114-.064.078-.12.156-.184.234a.201.201 0 00.035.277c.064.05.149.057.22.014.248-.149.488-.298.736-.447.014 0 .028 0 .043-.014a3.926 3.926 0 00.764-.355s.014 0 .021-.007c.213-.107.425-.227.63-.348-.148.092-.304.185-.453.27v.014zm-.233-7.545a4.375 4.375 0 00-.163.22c-.34.156-.68.313-1.013.483-.028-.014-.056-.029-.084-.036a.535.535 0 00-.213 0c-.12.015-.24.043-.347.093-.177.078-.34.177-.503.276.078-.07.156-.149.234-.22a14.98 14.98 0 011.466-1.142 10.881 10.881 0 011.692-.93c.248-.107.495-.206.743-.305-.233.163-.474.312-.694.482l-.007.007a7.66 7.66 0 00-1.069 1.008l-.021.022v.007l-.007.007v.007l-.014.021zm1.855 6.594c-.206.12-.411.227-.61.348-.14.085-.275.163-.417.248.205-.12.41-.248.609-.376.149-.1.29-.199.439-.298 0 .028-.014.05-.021.078zm-.007-2.57a52.66 52.66 0 00-1.558 1.243c-.404.34-.807.688-1.19 1.043-.219.184-.431.39-.594.639.056-.078.106-.156.163-.235.368-.503.743-1 1.133-1.49.368-.468.771-.909 1.196-1.32.1-.1.212-.185.311-.284.135-.021.27-.035.397-.057h.049c.284-.035.574-.092.857-.135-.255.2-.51.405-.772.597h.008zm6.088-6.217h.043c-.021 0-.043.014-.064.014.007 0 .014-.014.021-.021v.007zm-1.465 5.04c.042 0 .092-.015.134-.022.58-.078 1.161-.156 1.735-.241-.51.206-1.02.426-1.515.66-.595.284-1.19.575-1.784.866.495-.405.97-.824 1.43-1.27v.006zm-2.04-10.27a.385.385 0 00.022.198c-.227.057-.453.106-.68.163a7.542 7.542 0 00-.382.1c.347-.157.694-.306 1.04-.462zM66.53 7.806c.326-.085.658-.163.984-.248.467 0 .934-.007 1.402-.007.425 0 .85-.014 1.274-.036-.141.043-.29.071-.432.121-.318.107-.637.22-.941.355a3.695 3.695 0 00-.8.483c-.163.127-.29.283-.411.454-.29-.036-.573-.064-.864-.1-.764-.078-1.536-.113-2.308-.149h-.347c.375-.156.744-.312 1.126-.454.425-.163.864-.305 1.31-.419h.007zm-4.298-1.731a12.054 12.054 0 011.586-.625 25.24 25.24 0 011.735-.49c-.135.078-.27.15-.397.22-.39.227-.764.469-1.14.71-.34.021-.68.064-1.02.12-.396.072-.785.164-1.174.27.134-.07.269-.142.403-.205h.007zm-3.752 6.643c.149-.17.319-.326.474-.49l.064-.042c.489-.291.963-.59 1.444-.895.517-.333 1.027-.688 1.473-1.107a4.65 4.65 0 00.191-.184c.078-.015.149-.036.227-.043a7.63 7.63 0 01.8-.078 38.76 38.76 0 011.288-.057c.446-.014.892-.021 1.345-.021a18.49 18.49 0 00-1.168.383 12.43 12.43 0 00-2.01.958c-.085.05-.163.114-.248.163-.276-.12-.595-.014-.857.093-.34.135-.666.312-.984.482-.552.306-1.112.61-1.65.951-.347.228-.686.469-1.012.717-.021.015-.043.036-.064.05.22-.298.453-.596.687-.887v.007zm-.347 3.237c.07-.072.149-.135.22-.2a2.822 2.822 0 00-.185 1.058c-.028.029-.056.05-.084.078a15.05 15.05 0 00-1.388 1.54c-.354.455-.666.959-.864 1.498v.021c0 .015-.014.036-.021.05-.014.05-.021.092-.036.142-.02.071-.05.135-.056.206-.326.397-.659.795-.977 1.192a40.567 40.567 0 00-1.855 2.527c-.1.15-.198.305-.297.454.34-.646.68-1.291 1.033-1.923.41-.738.821-1.484 1.218-2.229a18.42 18.42 0 011.09-1.781 21.07 21.07 0 011.14-1.484c.34-.397.694-.795 1.07-1.157l-.008.008zM55.336 9.78c.043-.064.085-.121.128-.185 0 .057-.014.114-.014.17-.071.05-.149.107-.22.156.036-.05.078-.099.114-.149l-.008.008zm-2.676 4.024c.206-.312.425-.618.659-.909.205-.262.417-.518.637-.766.184-.206.368-.412.566-.61.22-.22.446-.426.673-.632-.113.163-.234.326-.347.497-.007.014 0 .028-.007.05a9.793 9.793 0 00-1.013 1.15 8.206 8.206 0 00-.51.78 18.79 18.79 0 00-.736.575c.029-.043.05-.085.078-.128v-.007zm-.106 4.911c.418-.603.857-1.2 1.31-1.781a31.22 31.22 0 011.366-1.64c.41-.454.843-.894 1.296-1.306.085-.078.177-.149.262-.22.007.2.035.39.078.582-.036.036-.078.064-.114.093-.431.376-.856.76-1.274 1.15-.51.475-.984.979-1.444 1.504-.503.568-.991 1.15-1.473 1.732-.191.227-.36.468-.538.71.177-.277.34-.554.524-.824h.007zm-3.066 18.617c-.014.079-.042.15-.063.22-.057.17-.128.341-.206.504-.184.412-.368.824-.559 1.235.043-.326.078-.653.135-.972.05-.305.12-.61.177-.923.141 0 .276-.014.417-.028.043 0 .078-.028.106-.057v.014l-.006.008zm.78-4.194c.084 0 .17-.007.247-.036.035-.014.064-.028.1-.042-.065.177-.128.355-.185.532v.007c-.156.49-.297.98-.432 1.476-.127.462-.248.923-.347 1.392-.05.227-.085.454-.127.68a.17.17 0 00-.135-.113 2.719 2.719 0 01-.332-.056c.014-.071.02-.135.042-.206.106-.476.227-.951.361-1.42.12-.419.255-.837.404-1.249.12-.326.248-.653.41-.965v-.007l-.007.007zm-1.983-7.375a66.68 66.68 0 00.892-1.526c.312-.539.63-1.078.956-1.61-.156.283-.319.553-.468.837A71.268 71.268 0 0048.52 25.8c-.008.021-.022.035-.029.057-.028.056-.05.106-.078.163a.14.14 0 00-.063-.092.139.139 0 00-.156.014c-.021.014-.036.028-.057.042.043-.078.092-.149.135-.227l.014.007zm-.913 2.016c.325-.483.623-.972.92-1.47-.276.59-.545 1.18-.814 1.768-.029.064-.05.12-.078.185a3.246 3.246 0 00-.248.07c-.085.03-.163.072-.248.1.163-.213.319-.426.468-.646v-.007zm-1.487 2.953c.042-.043.078-.085.12-.121.184-.156.368-.312.552-.461.071-.057.15-.121.227-.178l-.042.156c-.206.157-.404.32-.595.49l-.34.298c.021-.064.05-.12.078-.184zm-.142 4.01c.064-.32.128-.639.206-.958.177-.263.354-.525.538-.781.014.085.028.17.05.248.056.235.112.469.176.696 0 .014.014.021.014.028a.785.785 0 00.588.568c.234.05.474.021.7-.028a.124.124 0 00.093-.15.11.11 0 00-.057-.077c-.12-.078-.262-.17-.34-.299-.014-.02-.014-.042-.014-.063.057-.178.135-.355.22-.526.155-.312.325-.617.495-.93.234-.425.482-.844.737-1.256l.106-.191c0 .028-.014.056-.014.085-.043.44-.036.93.148 1.341.064.17.163.32.29.44a11.5 11.5 0 00-.502.916 9.545 9.545 0 00-.517 1.285c-.141.433-.269.866-.396 1.298a2.554 2.554 0 00-.446-.383 2.999 2.999 0 00-.538-.284c-.255-.092-.538-.106-.8-.106-.071 0-.142 0-.213.014-.056-.156-.184-.263-.34-.34a.783.783 0 00-.255-.093c.029-.156.043-.312.071-.468v.014zm-.134.859s0-.007.007-.014c.056-.036.148-.015.205 0 .07.014.142.05.184.099a1.901 1.901 0 00-.439.156c.007-.078.021-.156.036-.241h.007zm-3.937 30.32a27.464 27.464 0 01-.085 1.527c-.02.298-.07.596-.12.887-.092-.518-.184-1.03-.248-1.555-.078-.66-.134-1.32-.17-1.98a500.321 500.321 0 01-.155-3.258 74.901 74.901 0 01-.078-2.52.458.458 0 00.063.058c.015.014.029.028.043.035.007 0 .014.007.021.014.057.05.113.1.184.135.05.383.12.767.184 1.15.092.518.184 1.036.255 1.554.057.398.1.795.12 1.2.022.433.029.866.029 1.292 0 .49-.014.98-.029 1.469l-.014-.007zm.737-4.478v.043c0 .092-.008.184-.015.276a61.77 61.77 0 00-.474-1.511 15.14 15.14 0 01-.262-.852c.092 0 .184 0 .276-.014a.124.124 0 00.1-.135.077.077 0 00-.022-.05 2.095 2.095 0 01-.297-.589 3 3 0 01-.036-.44v-.042c.057-.057.135-.107.206-.05.05.042.12.035.163-.014a.114.114 0 00-.015-.164c-.12-.099-.248-.099-.375-.063a6.833 6.833 0 00-.099-.646c-.064-.306-.1-.61-.113-.916a19.205 19.205 0 01-.029-1.107c0-.419.043-.83.1-1.242.077-.582.127-1.164.148-1.753 0-.142.014-.291.021-.433l.064-.256c.085-.355.17-.71.262-1.057.007.014.021.028.028.042.015.071.029.135.036.206.042.234.078.468.078.703 0 .007.007.014.007.021.007.823-.007 1.654-.029 2.477-.02.965-.042 1.93.015 2.896.035.617.092 1.235.177 1.852.063.483.141.959.233 1.434-.064.454-.12.916-.141 1.37l-.007.014zm.34-15.239c.035-.24.091-.475.134-.71.042-.013.092-.02.134-.028a17.79 17.79 0 00-.028.61l-.021 1.221c-.043-.141-.092-.276-.128-.418-.014-.064-.035-.17.043-.206a.196.196 0 00.092-.256.187.187 0 00-.24-.092c0-.042.006-.078.013-.12zm-.036 3.4c.05.249.1.504.142.753l-.107-.433c-.014-.107-.02-.213-.035-.32zm.142 13.933c.042.021.099.021.148.035 0 .2-.007.398-.014.604-.042-.213-.099-.426-.149-.646h.015v.007zm.708 10.22c-.022.071-.05.15-.071.22-.198-.333-.39-.674-.567-1.022l-.02-.042c.049-.22.091-.447.134-.674l.042.02c.035.022.057.05.092.072.021.007.043.007.064.014.021.007.035.028.056.028.036.015.078 0 .114.015.064.007.12.02.177.014a.68.68 0 00.17-.029c.056-.014.113-.028.163-.05.014 0 .028 0 .042-.013a19.48 19.48 0 01-.396 1.433v.014zm2.555-10.866c-.07-.107-.127-.213-.205-.312-.099-.12-.191-.249-.283-.377a.537.537 0 00-.149-.134 1.135 1.135 0 00-.127-.071l-.021-.078a.738.738 0 00-.262-.306c-.057-.326-.12-.645-.17-.972a23.69 23.69 0 01-.177-1.739c.035.107.078.206.113.312.205.64.467 1.257.75 1.867.213.462.418.937.68 1.37v.007c.035.057.085.106.12.163-.092.086-.176.17-.269.249v.021zm1.785 3.336v-.1h.02a.12.12 0 01.05.008c.022.035.036.07.05.099l.064.199a2.436 2.436 0 00-.177-.206h-.007zm.226 4.585c-.021-.114-.035-.227-.056-.34 0-.285 0-.576-.008-.86l.071.114v.795c0 .1-.007.199-.014.298l.007-.007zm-.064-6.203c-.099-.007-.19-.007-.29-.015-.007-.12-.021-.234-.028-.354 0-.064-.021-.128-.029-.192.199.22.411.419.645.603a.151.151 0 00.042.029 1.433 1.433 0 00-.347-.071h.007zm1.72 1.689c-.013-.036-.027-.078-.042-.114a4.59 4.59 0 00-.375-.653c-.092-.135-.191-.262-.283-.39.035.021.064.043.092.064h.014c.29.17.595.32.906.468-.127.192-.22.405-.304.618l-.007.007zm2.989 7.41l-.022.206c0-.036-.014-.071-.014-.1-.07-.468-.134-.937-.198-1.405a.998.998 0 00.304.177c.014 0 .022.007.036.015-.029.376-.057.745-.092 1.114l-.014-.007zm.247-6.984l-.02.028c-.03.036-.057.064-.072.107 0 0 0 .014-.014.028a.054.054 0 01-.014.028c0 .008 0 .022-.007.029-.014.035-.021.064-.021.064v.042c0 .022-.014.036-.014.05l-.022.227a12.45 12.45 0 00-.276-.717c.057.007.106.021.163.029.12.014.234.02.354.028a.191.191 0 00-.057.05v.007zm2.195 2.15a2.03 2.03 0 00-.283.32.422.422 0 00-.135.05c-.092-.299-.19-.647-.396-.888-.014-.021-.035-.035-.057-.05-.056-.298-.12-.596-.148-.894-.015-.113-.022-.22-.036-.333 0-.036-.021-.064-.028-.1-.014-.042-.021-.085-.036-.12a.871.871 0 00-.07-.1c-.029-.035-.05-.064-.078-.092 0 0-.007-.014-.014-.021.148-.022.304-.043.446-.093.014.029.02.064.028.093.142.404.297.802.46 1.192.142.334.27.667.397 1.008-.007.007-.022.014-.029.021l-.02.007zm.715 2.123a9.79 9.79 0 01-.255 1.725c-.02.106-.056.212-.078.311-.028-.191-.056-.39-.092-.582.036-.198.078-.397.114-.603.07-.369.141-.745.248-1.107.014-.043.028-.085.035-.12a.248.248 0 00.028.063v.32-.007zm-41.99 35.367c-.454.298-.9.61-1.346.923.057-.057.1-.114.156-.171.34-.34.7-.681 1.119-.922.261-.149.538-.256.828-.348-.255.17-.503.348-.758.518zm114.524 2.811c-.347-.121-.687-.242-1.034-.355.276.028.552.049.836.071.184.014.396.035.566.12.205.107.382.263.559.419a6.762 6.762 0 01-.92-.263l-.007.008zm-61.56-47.817s.064 0 .078-.036c.262-.496.524-.993.8-1.483.156-.277.304-.554.474-.823.064-.1.142-.192.248-.227a.65.65 0 01.404.028c.078.028.155-.014.184-.092a.136.136 0 00-.057-.163c-.184-.128-.404-.22-.63-.192-.014 0-.021.007-.035.007.127-.185.254-.376.389-.554.1-.127.198-.248.304-.362.036-.035.078-.085.12-.099.022-.007.065-.035.079-.014a.16.16 0 00.19.035c0 .043 0 .093.015.135.042.334.085.674.163 1.008.05.234.127.461.24.674a.253.253 0 00.071.078c.114.156.262.27.446.327.014 0 .022.014.036.021h.014c.17.043.347.064.517.057h.028c.191-.014.368-.114.531-.206.27-.149.517-.326.765-.504.028-.021.035-.057.014-.085-.014-.021-.043-.028-.071-.021-.276.106-.56.206-.843.284-.127.035-.269.078-.403.07a2.083 2.083 0 01-.418-.092.45.45 0 01-.248-.191 1.991 1.991 0 01-.19-.533 10.31 10.31 0 01-.24-2.271c-.001-.355-.001-.717.034-1.072.028-.227.078-.447.149-.667.05-.142.099-.305.205-.404.198-.2.481-.32.73-.44a.157.157 0 00-.085-.298c-.34.042-.758.113-1.006.369-.156.17-.24.39-.304.61v.007a5.39 5.39 0 00-.163.752c-.057.377-.057.76-.057 1.136 0 .248 0 .497.021.752a.47.47 0 00-.41-.056.446.446 0 00-.135-.022h-.007c-.198.007-.347.234-.446.383-.234.341-.41.717-.595 1.087-.198.404-.39.816-.573 1.227-.276.646-.46 1.328-.623 2.009 0 .028.014.057.042.064.022 0 .05 0 .064-.029.064-.149.127-.29.198-.44a1.597 1.597 0 00-.056.17c-.015.036.007.072.042.086zm15.604 6.36c-.403 0-.8-.057-1.19-.143-.297-.063-.622-.149-.934-.134h-.014a.452.452 0 00-.269.07c-.085.057-.106.15-.092.242 0 .014-.007.028 0 .042 0 0 0 .015.007.022 0 .007.014.007.014.014.12.213.446.149.637.092a.113.113 0 00.064-.05c.17.029.333.072.496.107.417.092.85.156 1.274.156.552 0 1.119-.085 1.614-.333.029-.015.043-.05.029-.086-.015-.02-.036-.035-.057-.035-.524.028-1.055.035-1.579.028v.007z" fill="#000"/></g><defs><clipPath id="clip0_259_4"><path fill="#fff" d="M0 0h147v130H0z"/></clipPath></defs></svg>